<?xml version="1.0" encoding="utf-8"?>
<!-- Generator: Adobe Illustrator 15.0.0, SVG Export Plug-In . SVG Version: 6.00 Build 0)  -->
<!DOCTYPE svg PUBLIC "-//W3C//DTD SVG 1.1//EN" "http://www.w3.org/Graphics/SVG/1.1/DTD/svg11.dtd">
<svg version="1.1" xmlns="http://www.w3.org/2000/svg" xmlns:xlink="http://www.w3.org/1999/xlink" x="0px" y="0px" width="800px"
	 height="600px" viewBox="0 0 800 600" enable-background="new 0 0 800 600" xml:space="preserve">
<g id="Layer_4">
	<rect x="-9.5" y="-38.5" fill="#C4BF86" stroke="#000000" stroke-miterlimit="10" width="820" height="707"/>
</g>
<g id="Layer_1">
	<path fill="#FFFFFF" d="M444.878,58.739c0,0-7.258,5.559-3.17,13.62s8.133-3.755,19.11-4.18c8.978,5.241,8.978,5.241,19.54,5.39
		c10.771,2.185,2.699,0.68,2.699,0.68s-1.812,15.569-3.37,18.87s37.039,19.585,37.74,72.11c22.368,38.191,12.607,31,12.607,31
		l1.543,18.2c0,0,46.695,40.971,35.813,49.87s-14.891,9.6-14.891,9.6s4.405,4.109,2.684,28.815
		c-1.722,24.705-242.014,63.613-247.349,58.395c2.293-15.689-17.444-53.34-44.818-92.653c-1.238-11.225-4.38-59.341,2.021-88.402
		c2.921-13.265,31.33-79.525,49.195-89.295s41.562-15.005,52.91-22.41c4.986-0.262-3.002,5.103-0.675,6.42s4.144-4.145,8.736-5.581
		s5.292,6.447,16.292,2.048s19.452-7.778,19.452-7.778s6.171-5.063,13.529-2.69s4.984,4.317,4.984,4.317s6.036-7.057,16.519-5.528"
		/>
	<path fill="#AF8B17" d="M452.639,83.679c10.879,0,35.997,17.506,51.989,39.746c7.505,12.503,9.131,47.742,9.131,47.742
		s15.636,10.444,15.635,40.812c4.734,9.441,43.914,43.961,37.234,50.971c-4.237,7.074-14.83,8.76-14.83,8.76s10.26,30.5,3.37,33.02
		s-17.515,6.405-17.515,6.405s15.613,1.582,18.211,4.934c1.507,1.943,1.695,20.49,1.339,37.707
		c-0.258,12.465,3.603,22.395-0.016,26.434c-8.776,9.414-78.582,40.848-84.987,45.695s-4.483,33.621-9.444,40.234
		S324.03,404.381,324.03,404.381s-21.9-15.268-19.902-13.875s7.08-37.246,7.08-37.246s4.293-128.489,25.94-116.499
		c17.313-27.008,48.615-125.203,61.464-134.772S441.76,83.679,452.639,83.679z"/>
	<path fill="none" d="M482.795,280.586c0.056-0.056,0.111-0.111,0.167-0.167"/>
	<path fill="#997717" d="M353.69,289.91c0,0,13.951,17.604,20.527,20.889s8.42-6.059,11.79-5.389s10.79,9.43,10.79,9.43
		s119.05,83.857,96.37,99.07c-22.68,15.211-22.384,11.373-27.712,25.773s-1.043,32.725-1.043,32.725L302.366,396.84l9.715-46.572
		L353.69,289.91z"/>
	<path fill="#997717" d="M357.033,250.456c0,0,2.188-6.157,13.475-6.931s13.64,9.55,12.13,16.055s-10.78,8.76-10.78,8.76
		s-9.044,11.548-4.72,13.48s17.201-10.111,17.596-8.09c-5.272,13.355,5.701,19.339,2.548,16.18
		c-2.487,7.508-15.504,0.67-15.504,0.67s-13.499-7.165-16.074-14.83s0.17-24.26,0.17-24.26"/>
	<polygon fill="#997717" points="484.408,209.116 516.078,199.678 518.778,187.225 491.478,197.58 	"/>
	<path fill="#997717" d="M533.938,237.679c5.856-0.262,8.711,5.802,10.45,9.77s-8.76,9.43-8.76,9.43s-4.214,9.045-1.69,11.125
		s9.205-3.705,16.864-3.705s14.663-3.37,16.59,0s-15.594,11.168-15.594,11.168s-19.632,5.401-23.709,0.792
		s-3.433-11.262-1.592-16.68S530.018,241.708,533.938,237.679z"/>
	<path fill="#352C12" d="M313.47,95.814c-2.836,2.348-6.354,6.769-10.147,12.318c-0.436,0.637-4.144,1.821-4.585,2.486
		c-0.452,0.68,2.363,0.841,1.906,1.546c-1.454,2.245-2.933,4.617-4.416,7.065c-0.521,0.861-1.719,2.868-2.24,3.746
		c-0.676,1.137-0.675,1.149-1.347,2.307c-2.649,4.563-6.665,9.147-9.107,13.667c-0.65,1.203-1.86,2.546-2.485,3.72
		c-1.255,2.36-0.472,4.6-1.596,6.78c-0.454,0.881-0.896,1.744-1.324,2.586c-0.189,0.373-3.255-0.23-3.44,0.134
		c-2.627,5.19-1.815,10.459-3.011,13.14c-4.169,9.343-7.187,40.425-7.649,61.13c-0.306,13.679,0.042,34,0.363,38.187
		c0.647,8.434,19.624,20.748,28.952,40.188c12.012,25.033,16.425,52.416,19.205,53.836c4.939,2.52,16.171-0.805,24.248-7.75
		s24.361-47.213,22.409-51.851c-14.739-12.963-16.009-34.018-6.541-56.99s45.865,6.287,47.5,7.824
		c5.635,10.537-7.494,95.037-0.675,105.355s72.585,65.775,97.05,55.98s60.808-21.504,64.7-37.15
		c2.929-9.516,1.762-15.074-5.374-18.83c-5.6-2.947-16.316-4.553-21.927-7.645c-5.807-12.507-7.665-28.342-3.902-33.424
		c3.763-5.083,29.173-10.549,31.873-16.73c2.7-6.181,1.291-9.728-6.724-12.92s-15.988,4.567-28.688,13.567
		s-9.739,27.542-11.089,34.282c-5.61,5.718-78.939-17.529-78.939-17.529s-18.799-31.621-20.036-40.1s-2.119-31.335-2.119-31.335
		s6.663-17.943,8.856-30.25c0.265-1.479,7.981-5.54,10.695-9.692c0.486-0.744-8.239-1.062-2.254-5.883
		c0.266-0.213-1.824,2.985-1.793,2.69c0.014-0.137,8.937-6.632,8.942-6.756c0.022-0.455-4.11,4.003-4.223,3.825
		c-1.791-2.852-10.646,5.836-10.79,4.961c-0.069-0.426-0.209,1.483-0.35,1.028c-2.675-8.635-17.428-21.878-21.078-32.052
		c-0.197-0.551-18.359,4.399-11.252,2.044c0.451-0.149,11.252-2.044,10.356-5.395c-2.096-7.841,2.115-30.402,3.756-41.331
		c0.223-1.488,7.631-6.195,7.787-7.195c0.239-1.532-6.827,1.015-6.827,1.015c-1.304-2.364,2.206,0.675,1.199-2.621
		c-0.519-1.699,6.786-2.907,8.328-5.134c1.062-1.534-3.207-4.128-1.175-5.501c8.312-5.615,47.096-22.318,55.089-21.551
		s3.439,5.388,7.993,0.767s7.608-5.404-1.592-8.99c-4.152-1.618-17.818-1.973-33.418-1.894c-1.631,0.009-2.163-3.576-2.948-6.385
		c1.675-2.885,4.604-3.947,1.601-6.402s-7.881,5.363-10.26,6.958c-0.346,0.231-0.682,0.45-1.001,0.646
		c-0.892,0.548-12.443-3.778-12.944-3.771c-1.146,0.019,7.897,4.683,5.942,4.627c-4.22-0.12-9.438-0.333-11.837-0.285
		c-1.043,0.021-1.92,1.258-4.555,1.01c-8.809-0.829-10.089,4.386-15.836,4.331C370.581,76.027,325.478,85.875,313.47,95.814z"/>
	<polyline fill="#352C12" points="541.018,327.649 559.072,323.566 562.248,344.154 541.018,326.699 	"/>
	<path fill="#211908" d="M419.757,372.854c1.246,0.529,3.403,1.262,6.271,2.139c0.971,0.297,2.548-3.111,3.276-2.193
		c1.601,2.021,1.524,4.949,2.307,5.172c3.294,0.938,7.067,1.791,11.183,2.646c0.806,0.166,1.694,2.465,2.524,2.633
		c0.804,0.162,1.548-1.805,2.373-1.639c0.886,0.176,2.723-1.111,3.631-0.93c0.637,0.127,0.338,1.721,0.983,1.85
		c4.698,0.939,9.653,1.953,14.713,3.137c1.551,0.363,3.018-0.523,4.579-0.168c0.294,0.068,0.679,1.385,0.973,1.451
		c0,0,8.476,6.549,5.768,5.959c0,0,3.943-3.773,10.23-2.475c1.754,0.363,3.204,6.23,4.924,6.48c5.57,0.809-3.179-5.92-2.685-5.822
		c2.165,0.424,4.422-0.719,6.547-0.479c1.051,0.117,0,2.684,3.028,1.758c0.806-0.246,1.673,0.152,2.502,0.225
		c2.66,0.232,5.268,0.457,7.803,0.811c1.133,0.158,2.571,3.094,3.638,3.227c0.906,0.113,0.569-1.977,1.418-1.885
		c5.459,0.598,10.986,1.303,12.688,0.787c12.333,1.797-31.393,20.66-44.655,18.281s-65.78-41.244-65.78-41.244"/>
	<path fill="#87151A" d="M305.808,372.799l-19.54,5.959l-2.02,43.201l152.221,97.76l80.959,107.16c0,0-0.65-70.215-26.28-115.92
		c-2.27-5.539,7.146-38.051,7.41-43.809c-1.181-4.229-31-19.541-31-19.541l-2.42,14.135c0,0-81.76-53.574-158.895-80.586
		C306.072,377.871,305.808,372.799,305.808,372.799z"/>
	<path fill="#435175" d="M302.366,382.24"/>
	<path fill="#020B2D" d="M282.382,408.184c-1.146,0.064,3.044-6.609,1.866-6.404c-10.057,1.754-24.553,8.727-26.003,14.85
		c-1.45,6.125,10.082,30.25,8.483,35.021c-1.599,4.77-73.266,60.438-68.871,192.408c1.938,3.695,357.328,5.027,357.328,5.027
		s-10.643-104.758-25.662-121.277s-38.375-15.322-38.375-15.322s27.532,74.525,23.45,104.15
		C464.413,502.869,377.462,427.42,282.382,408.184z"/>
	<g id="XMLID_2_">
		<g>
			<path d="M602.348,28.419c1.57,0,3.141,0,4.71,0c-2.01,1.36-4.75,1.98-8.08,2.02C598.647,28.319,602.068,29.939,602.348,28.419z"
				/>
			<path d="M565.948,258.91c1.85,0.01,1.6,3.18,0.68,4.04c-1.98-0.57,0.4-2.17,0-3.37c-0.66,0.02-0.53,0.83-0.68,1.35
				C564.748,260.429,565.858,259.699,565.948,258.91z"/>
			<path d="M563.178,361.459c-0.24-0.609-0.49-1.229-0.77-1.85C562.908,359.979,563.088,360.67,563.178,361.459z"/>
			<path d="M557.868,282.489c-0.03,0.17-0.09,0.32-0.17,0.44C557.748,282.79,557.798,282.64,557.868,282.489z"/>
			<path d="M551.798,318.89C548.638,319.52,550.608,315.749,551.798,318.89L551.798,318.89z"/>
			<path d="M549.108,368.76c0.14,1.149-1.15,1.739,0,2.02c-0.301,1-0.87-0.27-2.03,0C546.958,369.31,547.638,368.64,549.108,368.76z
				"/>
			<path d="M546.408,379.539c3.55,2.96-2.16,6.9-4.04,8.761C541.248,385.6,548.128,385.09,546.408,379.539z"/>
			<path d="M543.708,246.1c0.06-2.42,4.67-0.8,2.7,0.68c-0.66-0.02-0.521-0.83-0.67-1.35
				C545.188,245.779,544.638,246.129,543.708,246.1z"/>
			<path d="M548.428,368.079c-0.649-1.81-2.319-2.609-2.689-4.71C547.098,364.47,548.418,365.619,548.428,368.079z"/>
			<path d="M544.388,247.449c2.03,1.43-1.93,2.51-2.02,4.04C540.838,250.569,544.028,248.719,544.388,247.449z"/>
			<path d="M543.708,242.06c3.39,1.38-1.521,1.3-0.67,4.04c-0.601-0.52-1.521-0.72-2.7-0.67
				C539.738,242.569,544.147,244.739,543.708,242.06z"/>
			<path d="M543.038,293.279c-1.46-2.22,3.59-0.97,4.72,0C546.618,295.859,543.888,290.979,543.038,293.279z"/>
			<path d="M544.388,251.489C543.338,254.679,541.048,252.39,544.388,251.489L544.388,251.489z"/>
			<path d="M536.298,343.149c0.811-3.9,1.4,6.7,0.67,0.67C536.938,343.55,536.358,342.859,536.298,343.149z"/>
			<path d="M540.338,388.3c-0.56,1.35-5.16,4.699-6.06,1.35C536.988,391.229,536.948,387.85,540.338,388.3z"/>
			<path d="M535.628,295.299c1.45,0.57,1.08,2.95,2.02,4.04C537.078,300.52,535.468,297.08,535.628,295.299z"/>
			<path d="M532.258,275.75c-8.89-2.27-7.149-19.22,3.37-18.87c-2.26,2.57-4.93,5.51-5.39,11.46c1.27,2.55,4.399,3.23,4.71,6.74
				C534.358,276.719,530.258,274.479,532.258,275.75z"/>
			<path d="M534.948,304.729c1.109,1.15,2.819,1.68,2.699,4.05C536.118,308.06,535.198,306.729,534.948,304.729z"/>
			<path d="M532.258,304.729c-0.02,0.32-0.06,0.61-0.13,0.88C532.128,305.35,532.168,305.05,532.258,304.729z"/>
			<path d="M544.388,391.67c1.061-0.061,2.33,0.09,2.021-1.351c-0.45,0-0.9,0-1.351,0
				C545.058,390.999,544.518,391.13,544.388,391.67z M545.738,331.689c1.979,0.3,5.47,2.57,6.739,1.35
				c-0.779-0.22-3.18-2.09-1.35-2.699c2.44,0.699,1.95,4.34,4.71,4.72c0.3-2.95-2.06-2.21-0.67-4.72c-2.5-0.41-3.08-2.75-6.74-2.021
				C550.478,331.439,547.248,330.47,545.738,331.689z M555.168,304.729c0.15-1.271-0.76-1.48-0.67-2.69
				c-2.25-0.01-1.79,2.71-3.37,3.37c-0.72-0.63-0.21-2.489-2.02-2.02c0.569,1.569-2.36,2.899-0.681,3.37
				C550.348,305.749,553.308,305.789,555.168,304.729z M561.908,300.689C559.198,297.29,558.748,303.039,561.908,300.689
				L561.908,300.689z M559.888,241.379C557.488,243.149,561.288,245.16,559.888,241.379L559.888,241.379z M565.278,244.08
				c4.71,5.38,9.71,15.48,4.04,23.59c-4.681,2.42-11.101,3.07-12.131,7.41c-1.119,0-2.239,0-3.369,0c-0.07,3.89,1,6.64,2.699,8.76
				c0.471-0.23,0.931-0.46,1.181-0.91c-1.28,4.05,5.47,4.62,6.91,8.33c-0.021-0.04-1.421,6.75,0,10.1
				c-2.721-2.02-1.051,0.15-4.051,0.68c-0.479,2.061,0.69,2.45,0.681,4.04c-3.051,0.101-3.53,2.761-6.74,2.7
				c0.35,3.91,4.76,3.771,6.74,6.061c-3.91,9.3,10.3,22.739,0.67,31.68c-1.94-0.72-2.23-2.05-1.351-4.05
				c-2.1,3.3-2.63,8.609-0.67,12.14c0.95,1.71,1.8,3.38,2.521,5c-0.28-0.21-0.66-0.32-1.17-0.29c0.22,1.57,0.689,2.91,2.02,3.37
				c-0.02-0.42-0.04-0.84-0.08-1.23c2.03,5.181,2.7,10.091,1.431,15.391c0-0.01,0-0.021,0-0.03c-0.051-0.01-0.681,1.36-0.681,1.37
				c-3.68,4.58-4.91,9.84-8.76,14.16c0.35,1.92,1-1.09,1.35-1.351c0.761,1.25-1.79,4.921-4.72,4.721c0.55-3.28,3.11-4.53,4.04-7.42
				c-3.19,4.37-7.04,4.05-10.78,7.42c0.24-0.891,1.19-1.061,1.351-2.03c-1.21-0.08-1.42,0.83-2.7,0.68l-0.11-1.46l-1.229,0.78
				c-3.61-0.86-2.931,2.07-5.4,0.68c7.29-4.17,14.5-8.42,20.22-14.16c0.7-5.85,1.82-10.51,0-17.52c1.561-0.2,0.75,1.95,2.021,2.02
				c0.39-2.01-0.42-4.46-2.021-6.739c-1.29,0.08,0.79,2.26,0,4.05c-1.939-1.87-1.22-6.42-3.369-8.09
				c-2.74,1.22-2.07,1.149-4.04-0.67c-1.721,0.08-2.61,0.979-2.7,2.689c-0.08-4.24-8.771-3.13-10.11-8.08
				c0.61-1.819,2.74,0.311,2.03,2.021c6.34,1.33,10.57,4.78,15.5,0.67c0,0.68,0,1.35,0,2.02c2.51-0.06,1.92-0.75,4.04,0
				c-0.13-0.54-0.68-0.67-0.67-1.34c-0.19-1.42-1.8,0.97-2.7-0.68c0.12-5.21,0.47-6.17,2.02-10.11c-2.04-0.24-1.399,2.2-2.02,3.37
				c-0.85-0.16-0.68-1.34,0-1.35c-2.25-1.34-4.07-3.12-6.06-4.71c1.539-1.721,2.38,2.97,4.71,2.689c0.13-3.04-1.931-3.899-3.37-5.39
				c-1.141-0.25-1.271,0.53-1.34,1.35c-1.61-0.12-3.33-6.02-4.721-2.02c-1.1-2.271-2.43-4.311-3.37-6.74
				c1.78-0.91,5.96,0.57,5.391-2.7c6.83,0.99,9.35-2.319,10.109-7.41c-2.97-2.3-8.38-5.409-12.81-4.04c0.58,1.971,1.7-0.88,3.37,0
				c2.569,1.16-2.62-0.06-2.021,1.341c0.83,0.979,2.57,1.029,3.37,2.02c-0.28,1.33-2.95-2.05-6.06-0.67
				c-0.13-3.84-7.44-5.26-8.76-2.02c-1.98-0.57,0.869-1.7,0-3.37c-0.301-0.83-0.87-1.38-2.03-1.351
				c-2.34,5.101,1.17,9.971,1.35,14.15c0.05,1.18-1.27-0.32-1.35,0c-1.271,5.33,0.71,11.479-0.67,18.2
				c0.68-0.44,0.7-1.551,2.02-1.351c0.181,1.45-0.52,7.19,0.681,5.391c1.42,0.22,0.14,3.199-1.351,2.699c0-2.02,0-4.04,0-6.069
				c-4.17,0.33-2.01,6.989-6.07,7.42c3.091-4.44,7.521-16.36,1.351-20.22c-0.48-3.79,1.58-10.12-2.7-10.11
				c0.57-1.75,2.96,1.3,4.05-0.67c-0.89-3.47-2-6.42-4.72-10.79c1.58,0.22,1.51,2.09,2.7,2.7c1.71-1.78,4.62-2.341,5.26-5.19
				c0.03,2.38,3.5,2.44,2.15,4.521c3.06-0.54,6.229-0.96,8.76-2.03c-0.88-1.59-3.641-1.3-5.391-2.021c1.49-1.479-0.67-2.75,0-5.39
				c1.381,0.19,1.341,1.8,2.021,2.7c0.97-0.83,1.28-2.32,1.35-4.05c0.9,0.45,1.25,1.44,1.351,2.7c0.41-0.39,3.189-1.58,3.37,0
				c2.489-3.91,1.819,0.33,5.39-2.7c0,1.13,0,2.25,0,3.37c0.74-3.68,1.43-3.35,3.37-5.39c-0.49-3.78-5.04-3.5-5.39-7.41
				c2.979,1.06,4.18,3.9,6.729,5.39c1.92-5.75-2.61-10.86-8.08-11.46c0.25,2.52-0.84,3.27-2.7,4.72c0.16,1.19,1.16,1.54,2.7,1.35
				c-1.6,1.55-6.05,0.24-8.76,0.67c0.03,3.11,4.07,2.22,3.37,6.07c-1.66-1.04-2.69-2.71-4.05-4.05
				c-9.44,3.38-16.23,10.46-20.221,14.16c2.521-0.4,0.23,5.83-0.67,8.08c3.431-1.011,4.96,7.109,2.7,12.81
				c-1.62,0.271,0.37-3.07-2.03-2.02h-0.67h-0.67c0.28-2.021,3.101-7.44-0.68-9.44l-0.67-0.34l-0.67,0.34
				c2.069-7.8,2.859-16.9,11.449-18.2c-0.35-0.54-0.699-1.09-0.67-2.02c7.87-2.38,11.94-8.5,18.19-10.78
				c-1.93-1.52,3.91-5.01,8.09-4.72c-0.66-1.81,0.34-5.28-2.689-4.72c2.6-1.13-0.521-3.8,2.689-4.04c-4.2-0.9-8.89,1.51-11.46,2.7
				c-1.62-1.08-3.55-1.84-4.04-4.05c6.46-1.01,12.3-6.04,18.87-4.71c0.32,2.11-1.81,1.78-2.021,3.37
				c8.03,2.03,12.351-3.85,16.171-8.09c-0.851-6.6-4.98-11.85-7.41-14.83c-5.92-3.83-11.53-13.56-17.521-19.54l0.78-0.12l0.57-0.56
				C554.378,229.819,557.168,239.609,565.278,244.08z M559.888,371.449c2.74,1.08,2.67-7.27,0.67-4.71
				C562.528,367.89,559.038,369.189,559.888,371.449z M545.058,286.54c-0.1-0.9,2.271-2.51,0.681-2.7
				C545.838,284.739,542.998,285.879,545.058,286.54z"/>
			<path d="M529.558,368.76c1.62,1.12,3.181,1.81,2.021,4.04c-0.641-1.13-2.23-2.101-2.69,0
				C526.588,371.529,530.038,370.439,529.558,368.76z"/>
			<path d="M524.838,610.699c0.83,0.3,1.39,0.86,1.35,2.021C525.358,612.43,524.808,611.859,524.838,610.699z"/>
			<path d="M525.518,333.709c0.771,0.73-2.229,5.101-2.02,8.761c0.03,0.59,0.18,1.12,0.37,1.58c-0.3-0.271-0.65-0.57-1.05-0.9
				c-0.21-3.81,0.18-7.01,1.35-9.44C524.768,334.13,525.378,334.529,525.518,333.709z"/>
			<path d="M525.518,646.42c-0.68,0-1.35,0-2.02,0c-2.26-4.37-1.32-8.211-3.37-11.461c-0.58-0.909-2.91-1.199-3.37-2.02
				c-0.35-0.61,1.36-0.62,1.34-0.67c-0.33-1.25-1.59-0.62-2.02-1.35c-0.66-1.131-0.13-4.171-0.67-6.07
				c-0.96-3.34-3.21-5.83-3.37-9.43l0.34-0.671c-0.09-0.229-0.17-0.449-0.26-0.68c0.87,0,1.75,0,2.62,0
				c0.05,0.96,0.109,1.91-0.681,2.021c0.21,0.92,1.69,0.56,2.7,0.68c1.26,1.77-1.77,2.27,0.67,4.04c1.4-1.851-0.06-6.021-1.35-8.76
				c3.04,0.06-0.29-2.04,0.68-4.04c2.79,2.069,2.08,3.54,3.37,6.739c-0.55-0.13-0.68-0.68-1.35-0.68
				c-0.25,1.15,0.52,1.271,1.35,1.351C518.678,625.949,523.158,634.659,525.518,646.42z M519.448,627.55
				c-0.061-4.011-1.07-5.66-3.37-6.74c0.899,1.53,2.62,4.46,1.35,6.07C518.358,626.85,518.908,627.189,519.448,627.55z"/>
			<path d="M523.868,344.05C526.948,346.789,524.818,346.22,523.868,344.05L523.868,344.05z"/>
			<path d="M525.518,605.979c-0.29,1.87-2.12,0.04-1.35-1.34C524.897,604.8,524.628,605.979,525.518,605.979z"/>
			<path d="M523.508,601.92c0.32-1.82,2.36,1.02,1.33,2.039C524.738,604.06,523.658,601.92,523.508,601.92z"/>
			<path d="M522.818,594.529c1.97-1.38-3.011-3.04,0-3.37c-0.811-0.89-0.261-1.06,0-2.029c1.079,1.85,1.39,4.46,1.35,7.42
				c-1.271-0.08-0.47-2.23-2.021-2.021C522.278,593.76,522.818,594.149,522.818,594.529z"/>
			<path d="M522.818,620.81c-0.29,1.689-1.45-1.12-1.351-2.021C522.098,619.279,522.498,620.01,522.818,620.81z"/>
			<path d="M520.128,408.52c-0.21-1.78,0.93-2.21,2.69-2.021C522.238,407.489,521.808,408.63,520.128,408.52z"/>
			<path d="M516.758,393.689c1.18,1.97,4.58,1.71,4.71,4.72C520.218,396.52,516.818,396.779,516.758,393.689z"/>
			<path d="M518.778,409.189c1.199,0.5,0.1,1.23,0,2.03C517.578,410.72,518.678,409.989,518.778,409.189z"/>
			<path d="M517.428,558.13c-2.609,1.54-0.31-3.83-1.35-5.391C518.488,554.069,515.578,556.529,517.428,558.13z"/>
			<path d="M517.428,533.869c-1.3,3.271-3.27-1.859-2.02-3.37C517.318,530.38,514.588,534.909,517.428,533.869z"/>
			<path d="M515.818,535.619c-0.011,0.021-0.021,0.051-0.03,0.07C515.798,535.659,515.808,535.64,515.818,535.619z"/>
			<path d="M515.498,536.35c0.06-0.15,0.13-0.3,0.18-0.42C515.638,536.039,515.578,536.18,515.498,536.35z"/>
			<path d="M515.498,536.35c-0.021,0.06-0.061,0.14-0.09,0.22c-0.05,0.12-0.09,0.22-0.141,0.311
				C515.338,536.709,515.418,536.52,515.498,536.35z"/>
			<path d="M510.018,393.689c3.03,0.11,2.12,4.17,5.391,4.05C513.238,399.42,510.658,395.779,510.018,393.689z"/>
			<path d="M515.268,536.88c-0.04,0.109-0.08,0.199-0.109,0.27C515.188,537.069,515.228,536.979,515.268,536.88z"/>
			<path d="M515.158,537.149c-0.04,0.09-0.07,0.16-0.09,0.21C515.078,537.31,515.108,537.239,515.158,537.149z"/>
			<path d="M514.738,330.34c-1.08,2.3-3.4,3.35-4.721,5.39C505.828,332.829,513.308,331.909,514.738,330.34z"/>
			<path d="M512.118,614.069c0.09,0.23,0.17,0.45,0.26,0.68l-0.34-0.68C512.068,614.069,512.088,614.069,512.118,614.069z"/>
			<path d="M515.408,529.829c1.87-3.189-1.42-7.72,0-8.76c-6.681-3.22-9.641-3.58-15.5-4.72c1.92-1.61,4.26,0.24,2.02-2.7
				c4.57,0.83,7.09,3.7,11.46,4.72c1.82-0.6-1.42-1.62-2.02-2.02c6.7,1.07,12.479,5.13,16.17,10.78
				c0.59,1.689-3.11-2.881-5.391-2.69l-0.68-0.34l-0.67,0.34c0-0.23,0-0.45,0-0.68c0.48-1.83-3.18,0.489-2.7-1.34
				C514.998,523.359,518.978,528.579,515.408,529.829z"/>
			<path d="M510.018,562.18c0.771,0.21,2.57,3.189,0,2.689C511.138,563.529,509.958,564.02,510.018,562.18z"/>
			<path d="M507.998,519.72c-0.45,0-0.9,0-1.351,0c0-0.45,0-0.9,0-1.351C507.788,518.119,507.918,518.899,507.998,519.72z"/>
			<path d="M507.318,382.239c1.619,0.601-1.46,2.05-2.69,2.021C504.338,382.399,507.138,383.63,507.318,382.239z"/>
			<path d="M507.318,572.289c0,0.45,0,0.9,0,1.341c-0.45,0-0.9,0-1.351,0c0-0.44,0-0.891,0-1.341
				C506.418,572.289,506.868,572.289,507.318,572.289z"/>
			<path d="M506.647,333.039c2.101,2.17-0.27,2.99-2.699,4.04c-0.38-2.85,2.649-2.29,2.699-4.71
				C507.408,332.489,507.018,333.039,506.647,333.039z"/>
			<path d="M501.258,395.72c-0.899-1.38,5.45,0.529,5.39,2.689C502.918,399.439,504.248,395.42,501.258,395.72z"/>
			<path d="M503.278,382.239c0.319-1.92,2.56-1.939,4.04-2.7C506.348,380.81,505.818,382.529,503.278,382.239z"/>
			<path d="M503.278,579.029C504.448,578.84,506.728,587.89,503.278,579.029L503.278,579.029z"/>
			<path d="M501.258,399.76c-2.18-0.811,4.13-0.67,3.37,1.35C503.738,400.42,502.138,400.449,501.258,399.76z"/>
			<path d="M503.948,560.159C506.438,562.199,501.908,562.43,503.948,560.159L503.948,560.159z"/>
			<path d="M497.888,378.189c1.44-3.72,5.25-5.08,8.76-6.74C504.028,374.01,501.147,376.289,497.888,378.189z"/>
			<path d="M500.578,549.369C502.318,547.05,502.208,552.84,500.578,549.369L500.578,549.369z"/>
			<path d="M500.578,520.39c-2.55,1.189-1.24-7.28-5.391-6.74c0.94-1.75,3.49,0.5,4.721,0.68
				C498.568,515.869,499.638,519.079,500.578,520.39z"/>
			<path d="M490.468,395.039c1.48-1.869,2.771,2.141,4.72,2.021c1.28-0.061-0.42-2.63-1.35-2.69c2.29-2.25,3.25,2.551,6.07,2.021
				c2.95,0.939-4.3,0.41-1.351,1.35c-0.02,2.05-4.239-0.99-2.02,0.67C494.288,400.18,493.018,395.209,490.468,395.039z"/>
			<path d="M499.228,542.63c0.96-2.96,2.78,3.17,0,2.029C499.698,544.109,500.278,542.81,499.228,542.63z"/>
			<path d="M499.908,536.569c0.729,1.49-0.771,2.72-0.63,3.49c-1.471-2.09-2.311-9.18-4.091-11.58c2.54-0.51,0.471,3.58,3.37,2.7
				C498.538,534.649,497.598,535.14,499.908,536.569z"/>
			<path d="M499.228,330.34C501.728,332.39,497.188,332.609,499.228,330.34L499.228,330.34z"/>
			<path d="M499.278,540.06c0.189,0.28,0.399,0.479,0.63,0.55C499.488,540.47,499.308,540.279,499.278,540.06z"/>
			<path d="M497.888,333.039c2.11-1.029-4.35,3.4-2.7,4.04C492.348,338.01,496.118,333.579,497.888,333.039z"/>
			<path d="M491.147,572.959l-0.789,0.11l-0.561,0.561c-1.37,0.77,1.45,2.989,0.67,5.399c-4.88-11.97-13.43-20.26-20.22-30.33
				l0.34-1.01l0.34-1.01c1.61,0.26-0.37-3.07,2.021-2.021C477.768,555.09,484.628,562.89,491.147,572.959z M473.628,550.05
				c0.18-1.771-0.25-2.9-2.03-2.7C471.488,549.039,472.638,549.459,473.628,550.05z"/>
			<path d="M489.128,223.189c-0.36,0.54-0.71,1.09-0.68,2.02c-1.971-0.61-2.07-0.61-4.04,0c0.41-0.6,0.81-1.21,0-1.35
				C485.428,222.759,486.718,224.37,489.128,223.189z"/>
			<path d="M484.408,226.56c-0.4-0.62,4.02-0.51,3.37,1.35c-1.15,0.14-1.75-1.15-2.021,0
				C485.018,227.739,485.298,226.569,484.408,226.56z"/>
			<path d="M481.038,519.05c-1.7-0.511-1.78-3.641,0-3.37c-0.11-0.79-1.23-0.57-2.021-0.681c-0.109-1.899,1.9-1.689,2.69-2.689
				c-2.79-1.23,1.57-1.59-1.35-2.7c3.01,0.23,1.02-1.93,1.35-6.74l0.34,0.34l0.34-0.34c3.03-0.59,0.311-8.67,4.71-8.76
				c-2.2-1.06-0.899-7.31,1.351-8.09c-0.29,3.07,0.739,4.56-0.67,7.42c0.42,2.34,2.81-3.79,2.689,0c-1.51,0.28-2.14,1.44-3.37,2.02
				c-0.31,1.44,0.971,1.28,2.03,1.351c-2.94,2.97-2.23,5.93,0.67,8.76c1.13-6.49,0.32-14.81,4.72-22.24l0.67,0.33l0.671-0.33
				c-0.271,6.78-4.16,16.771-3.36,24.931c-1.09,0.189-1.16-0.63-2.03-0.67c-0.27,1.619,1.23,1.46,0.68,3.369l-0.68-0.34l-0.67,0.34
				c-1.14-1.119-2.88-3.659-1.35-5.39c-2.9-1.7-2.65,3.08-3.37,1.351c-0.181,0.199-0.96,2.829,0,3.369
				C481.948,511.42,481.688,515.43,481.038,519.05z"/>
			<path d="M487.098,470.52c1.74,0.16-0.92,1.16,0,2.7c-1.09,0.189-1.16-0.641-2.02-0.681c0-0.449,0-0.89,0-1.34
				C486.038,471.249,486.988,471.31,487.098,470.52z"/>
			<path d="M486.428,230.6c-0.29,1.69-1.93-0.65-1.35-2.02C486.048,228.729,485.318,230.589,486.428,230.6z"/>
			<path d="M483.728,448.279c1.75,1.05,2,5.61-0.67,2.021c0-0.44,0-0.891,0-1.341C483.628,449.079,483.698,448.689,483.728,448.279z
				"/>
			<path d="M483.728,469.85c-0.27,1.68-2.609,0.04-2.02-1.351C482.598,468.739,482.768,469.689,483.728,469.85z"/>
			<path d="M483.058,415.26c0.12,1.47-0.55,2.14-2.02,2.02C481.758,416.649,481.248,414.8,483.058,415.26z"/>
			<path d="M482.388,407.17c0.101,0.06,0.21,0.119,0.32,0.189C482.508,407.27,482.397,407.199,482.388,407.17z"/>
			<path d="M490.468,465.13c-3.06-7.16-6.39-7.21-10.109-12.131c2.14-0.989,5.51,2.561,8.77,2.7c-4.05,1.04,11.58,10.34,13.47,8.08
				c-0.2,1.38-1.35,1.8-2.02,2.7l-1.2-0.24l-0.82,0.91c-4.79,5.09-5.66,11.76-8.76,16.18c-3.38-4.859-1.46-13.81,6.061-15.5
				c0.539-3.46-1.94-3.899-4.04-4.72C489.548,463.38,493.608,465.72,490.468,465.13z"/>
			<path d="M479.688,465.13c-0.38,1.39-2.609-0.91-2.02-2.69C479.058,462.619,478.298,464.949,479.688,465.13z"/>
			<path d="M480.358,390.999c-1.641-1.279-3.261-2.579-5.391-3.369C476.078,386.779,480.318,388.539,480.358,390.999z"/>
			<path d="M479.018,451.649C477.428,453.819,476.288,449.279,479.018,451.649L479.018,451.649z"/>
			<path d="M473.628,388.979c0.68,2.45,4.52,1.76,4.71,4.71C476.288,392.6,474.128,391.619,473.628,388.979z"/>
			<path d="M476.318,449.63c-0.44,0.689-1.551,0.699-1.351,2.02c-0.729-1.51-3.24-1.25-2.689-4.04
				C474.878,447.02,474.668,449.249,476.318,449.63z"/>
			<path d="M471.598,365.39c0.61-1.181,1.511-2.601,2.7-1.351C473.858,364.949,472.858,365.3,471.598,365.39z"/>
			<path d="M472.278,543.31c-3.28,4-6.16-6.58-8.091-6.07c-2.79-0.75,3.03-2.189-0.67-2.02
				C466.738,532.56,468.678,541.939,472.278,543.31z"/>
			<path d="M471.598,410.539c-0.529,1.551-4.17,0.66-3.37-1.35C469.118,409.88,470.718,409.85,471.598,410.539z"/>
			<path d="M472.948,358.649c-3.29,1.86-3.36,3.97-6.74,4.72C468.118,361.449,469.728,359.249,472.948,358.649z"/>
			<path d="M469.578,392.35c-3.24,2.41-3.36-4.101-7.41-1.351c-0.53-0.6-0.73-1.52-0.68-2.699
				C466.458,387.38,467.748,390.14,469.578,392.35z"/>
			<path d="M467.558,346.52c1.37,1.86-3.62,3.09-4.04,5.39C461.668,351.97,466.768,348.22,467.558,346.52z"/>
			<path d="M466.208,541.959l-0.79,0.11l-0.56,0.561c-2.86-1.171-3.28-4.801-6.74-5.391c0.88-2.97-0.03-2.76-1.34-4.72l0.779-0.11
				l0.561-0.56C462.048,533.01,462.618,538.8,466.208,541.959z"/>
			<path d="M465.538,321.579C467.168,324.02,461.798,324.43,465.538,321.579L465.538,321.579z"/>
			<path d="M460.147,522.42c1.03-5.48,3.24-9.79,4.711-14.83c4.17,1.989,4.119-4.44,7.42-5.391l0.67,0.33l0.68-0.33
				c-0.75,4.19-3.43,6.46-4.72,10.11c-3.71-0.46-6.67,8.22-5.391,12.8C462.498,524.1,460.678,523.909,460.147,522.42z"/>
			<path d="M467.558,447.609c0.391-1.67,2.44-5.15,0.67-6.74C467.568,443.31,465.958,444.689,467.558,447.609z M528.208,397.06
				c-0.26,1.62,3.07-0.37,2.03,2.03c-3.69,1.8-8.341,1.54-8.091,6.06c-1.68-0.07-2.09-1.26-3.369,0c-0.25,1.15,0.52,1.271,1.35,1.35
				c-1.41,2.591-6.38,2.341-8.76,2.69c-7.48,7.36-17.96,7.61-25.61,14.83c-0.74-0.17-0.46-1.34-1.35-1.35
				c-8.261,5.18-16.04,16.18-16.851,31c-0.199,1.779,2.61,0.529,2.021,2.699c-2-2.63-4.03,0.75-1.351,2.021
				c-0.609,2.26-1.5,0.59-2.689,0c-1.58,5.1,4.109,5.02,6.74,7.41c1.47,1.35,1.399,6.09,4.71,4.05c-0.87,0.899-0.41,2.03,0.68,2.689
				c0.27-4.319,1.63,1.641,6.06,0.681c-0.02,2.88,1.54,1.51,3.37,3.37c0.471,1.81-1.39,1.3-2.02,2.02
				c0.729,2.64,2.12,4.62,4.05,6.061c-2.13,0.289-2.12-0.301-3.37-2.69c-1.45,1.25-0.439,4.96-2.03,6.06l-0.33-1.01l-1.01-0.33
				c0-0.68,0-1.35,0-2.029c-0.83,0.3-1.39,0.869-1.35,2.029c-1.96-0.95,1.189-2.319,0.67-4.05c0.66,0.021,0.53,0.83,0.68,1.35
				c2.23-4.97-1.3-10.97-8.09-10.779c1.561,3.479,2.76,3.819,6.061,6.06c-2.851,1.79-6.9-4.09-6.73-5.39
				c-5.61-0.08-9.92-10.01-16.18-9.431c-0.011-5.68-13.54-6.31-11.46-14.159h0.68v-0.67c0.67,0,1.35,0,2.02,0
				c1.181,1.369-0.5,1.319,0.671,2.699c6.439,0.98,9.159,5.66,14.159,8.08c2.11-1.51-0.5-3.939-2.029-4.04
				c0.17-1.739,1.159,0.931,2.699,0c-0.05-3.88-0.72-3.189-0.67-7.41c-0.79-0.109-1.199,0.15-1.35,0.671
				c0.27-1.57-0.09-5.771,1.35-8.761c-0.01-1.58-1.84,0.25-1.35,1.351c-1.88,0.3,0.53-3.681-1.35-3.37
				c1.699-1.22,2.1-3.75,4.04-4.72c-0.261-1.761-2.16-1.881-1.341-4.721c1.92,0.011,5.19-1.25,4.04-3.37
				c1.53-0.3,6.19-1.39,7.41-4.04c1,0.29-0.26,0.86,0,2.021c5.01-2.561,9.41-2.33,13.48-7.41c-1.511-1.4-4.4-1.93-8.09-2.7
				c-0.021-1.72,0.51-0.819,1.35-0.67c-0.47-2.45-4.91-0.93-7.41-1.35c1.05-1.25-0.31-4.181-2.02-4.72
				c-2.301,0.72,1.869,0.21,0.67,2.02c-2.851-2.09-6.021-3.86-7.41-7.41c2.16-0.59,0.92,2.22,2.689,2.021
				c1.271-1.23-2.06-4.341-4.04-2.69c-0.25-1.15,0.521-1.27,1.351-1.35c-0.94-1.311-3.49-1.011-4.72-2.021
				c0.439-2.02,1.439,0.641,2.699,0c0.5-2.31-2.739-0.859-2.029-3.37c2.04,0.66,2.649,2.74,4.05,4.04c1-0.29-0.271-0.859,0-2.02
				c0.97,0.38,1.64,1.05,2.02,2.02l-0.67,0.34l0.67,0.341c1.65,7.56,11.16,7.25,16.851,10.779c0.1-1.51-0.811-2.01-1.7-2.51
				c1.62,0.71,9.02,3.021,14.5,1.83c-0.35,0.55-0.7,1.1-0.67,2.03c1.67-0.95,1.189-2.33,0.67-4.05c4.03,1.75,8.62-2.131,11.46-5.391
				c2.13,2.32,7-0.109,6.74-1.35c0.569-1,2.17-0.971,3.37-1.34c-0.891,3.04-2.641,5.279-4.04,6.06
				c6.13-1.06,10.029-10.18,18.189-11.46C531.328,394.789,530.198,396.35,528.208,397.06z M474.298,471.869
				c-1.33,0.2-1.34-0.91-2.02-1.35c-0.011,0.89-1.181,0.62-1.351,1.35C472.168,472.13,473.208,472.939,474.298,471.869z
				 M456.778,461.09c1.77,0.52,7.479,3.369,6.739,2.02C460.568,460.729,460.647,458.699,456.778,461.09z M454.748,457.039
				c0-0.449,0-0.89,0-1.34c-0.44,0-0.89,0-1.34,0c0,0.45,0,0.891,0,1.34C453.858,457.039,454.308,457.039,454.748,457.039z
				 M493.168,413.909c0.58-3.5-4.58-1.26-4.72-4.04c-1.84-0.06-1.36,1.12-2.69,0c0.03,0.931-0.32,1.48-0.68,2.021
				C488.198,412.14,489.298,414.409,493.168,413.909z M480.358,411.22c2.119-1.13,2.76,2.5,3.369,0.67
				c-1.02-0.61-3.06-3.601-4.04-2.021C480.218,410.02,480.468,410.43,480.358,411.22z M512.038,405.149
				C514.308,407.199,514.078,402.659,512.038,405.149L512.038,405.149z M504.628,408.52c0.89,0.88,2.5,0.89,2.69-0.67
				C506.428,406.97,504.808,406.959,504.628,408.52z"/>
			<path d="M460.818,321.579c1.85,0.021,1.6,3.181,0.67,4.051C459.788,324.35,462.118,323.26,460.818,321.579z"/>
			<path d="M458.118,392.35C456.538,394.51,455.397,389.979,458.118,392.35L458.118,392.35z"/>
			<path d="M455.428,317.539c2.36,1.08,0.36,7.48-2.02,8.091C454.568,323.42,453.828,319.31,455.428,317.539z"/>
			<path d="M453.408,214.429C455.448,211.939,455.678,216.469,453.408,214.429L453.408,214.429z"/>
			<path d="M454.748,461.09C453.118,463.3,451.528,459.209,454.748,461.09L454.748,461.09z"/>
			<path d="M448.688,510.959c2.46,1.421,5.45,4.171,4.721,6.74C451.798,515.479,449.647,513.819,448.688,510.959z"/>
			<path d="M450.708,215.77c-1.69-0.28,1.12-1.45,2.02-1.34C452.238,215.06,451.508,215.449,450.708,215.77z"/>
			<path d="M451.378,383.59C454.468,384.029,450.838,387.659,451.378,383.59L451.378,383.59z"/>
			<path d="M446.668,82.339c0.69-1.56,3.1-1.4,5.39-1.35C450.808,81.989,448.858,82.279,446.668,82.339z"/>
			<path d="M447.338,383.59c0.83,0.29,1.39,0.859,1.35,2.02C447.858,385.31,447.298,384.739,447.338,383.59z"/>
			<path d="M445.988,508.26c1.779-0.2,2.22,0.939,2.029,2.699C447.498,509.899,445.878,509.949,445.988,508.26z"/>
			<path d="M445.318,316.859c2.52-0.54,1.25,4.16,0.67,4.72C444.958,320.43,446.228,319.13,445.318,316.859z"/>
			<path d="M448.688,215.77c-0.39,2.98-5.63,1.12-7.409,2.7C440.568,215.689,446.318,217.719,448.688,215.77z"/>
			<path d="M443.298,87.049c0.08-1.49,2.86-0.28,4.04-0.67C447.328,88.229,444.158,87.979,443.298,87.049z"/>
			<path d="M444.647,385.609c-1.02,2.22-1.649-1.4-3.369-0.68C442.098,382.89,443.848,385.409,444.647,385.609z"/>
			<path d="M441.278,176.689c0.58-0.99,1.01-2.14,2.689-2.03C443.388,175.649,442.958,176.799,441.278,176.689z"/>
			<path d="M443.968,506.239c-2,0-0.78-3.18-3.37-4.04C441.538,501.09,443.888,504.26,443.968,506.239z"/>
			<path d="M440.598,314.17c2.65,0.649,0.511,3.92,0,5.39C439.408,318.63,442.278,316.079,440.598,314.17z"/>
			<path d="M439.928,390.319c-0.45,2.021-1.439-0.64-2.7,0C437.328,388.649,439.508,390.13,439.928,390.319z"/>
			<path d="M439.928,497.479C436.748,496.43,439.028,494.14,439.928,497.479L439.928,497.479z"/>
			<path d="M435.878,202.299c-1.31-0.49,2.06-3.99,3.37-2.03C439.038,201.85,436.308,200.929,435.878,202.299z"/>
			<path d="M435.208,450.979C437.138,449.859,438.988,453.779,435.208,450.979L435.208,450.979z"/>
			<path d="M434.538,306.079c3.18,1.13,1.22,3.24,2.02,6.74C434.758,312.569,436.147,308.14,434.538,306.079z"/>
			<path d="M435.878,219.14c0.48,2.5-2.88,1.17-3.37,2.7C430.678,220.609,434.778,219.669,435.878,219.14z"/>
			<path d="M435.208,89.75C438.298,90.199,434.668,93.83,435.208,89.75L435.208,89.75z"/>
			<path d="M431.168,197.58c-0.39-2.21,4.4-5.02,7.41-6.07C439.308,191.54,432.768,195.439,431.168,197.58z"/>
			<path d="M430.488,444.909c1.38-1.63,4.22,0.95,4.72,0.681C434.658,449.029,432.318,444.489,430.488,444.909z"/>
			<path d="M419.038,66.16c2.67-0.89,8.29,3.51,10.1-1.35l0.34,0.34l0.341-0.34c1.85-0.34,0.59-1.63,3.369-2.02v0.67v0.68
				c0.521,0.46,1.75,4.01-0.68,3.37c0.13,2.12,1.26,3.24,3.37,3.37C432.438,71.58,423.428,68.709,419.038,66.16z M430.488,67.509
				c-1.011,0.11-2.48-0.24-2.69,0.67C428.808,68.069,430.278,68.419,430.488,67.509z"/>
			<path d="M432.568,203.509c-0.011,0.03-0.03,0.07-0.061,0.13c-0.01,0-0.01,0-0.02,0.01
				C432.528,203.589,432.548,203.549,432.568,203.509z"/>
			<path d="M431.838,491.409C430.208,493.63,428.618,489.539,431.838,491.409L431.838,491.409z"/>
			<path d="M429.818,442.22c2.079,1.649-1.46-1.221-1.351,0.67C425.918,442.52,429.928,440.149,429.818,442.22z"/>
			<path d="M426.448,78.969c0.08-1.49,2.859-0.29,4.04-0.68C429.588,79.25,427.498,80.069,426.448,78.969z"/>
			<path d="M429.138,198.25c1.07-0.84-3.26,3.68-5.39,4.05C423.738,199.14,427.488,199.739,429.138,198.25z"/>
			<path d="M427.798,208.359c-0.12,1.91,2.28,1.32,1.34,4.04c-6.68-0.39-4.229,8.35-10.779,8.09c5.97-4.35,6.25-14.39,14.13-16.84
				C431.998,204.54,429.758,208.33,427.798,208.359z"/>
			<path d="M431.168,349.209c1.47-1.13-1.05,3.961-2.7,4.051C428.348,350.89,430.748,351.039,431.168,349.209z"/>
			<path d="M429.138,217.12c-2.18,2.07-1.91-0.78-1.34-2.69C429.628,213.939,427.308,217.6,429.138,217.12z"/>
			<path d="M425.778,205.669c-0.881-0.06-0.04-4.02,2.02-3.37C427.248,203.549,426.928,205.02,425.778,205.669z"/>
			<path d="M426.448,196.229c1.92-0.96-1.66,2.33-2.021,3.37c-2.03-0.16-0.34-1.88-2.7-2.7c-2.229,1.07-2.02,2.42-1.35,4.05
				c1.21,0.08,1.43-0.83,2.7-0.68c0,0.9,0,1.8,0,2.7c-2.66,0.6-3.66-3.92-5.391-2.02c-1.1-0.16,0.131-1.18-0.399-1.71
				c1.359-0.16,2.02-3.37,4.439-4.36c-2.739-0.2-2.6-6.81-5.39-4.72c-1.89,0.29,1.69-2.51-0.67-2.69c3.55-1.83,8.07,7.15,6.06,8.76
				c0.28,2.28,2.61-1.79,2.021,1.35C425.008,197.489,426.008,197.129,426.448,196.229z"/>
			<path d="M425.098,438.17c0.69,0.439,0.7,1.55,2.021,1.35C425.908,442.27,423.828,441.52,425.098,438.17z"/>
			<path d="M472.278,77.62c1.67,1.63,6.09,0.28,7.409-0.68C478.088,75.399,473.138,74.899,472.278,77.62z M444.647,95.81
				c-8.079-0.91-17.609,2.69-18.199-4.71c2.649,1.95,6.72,4.24,9.43,1.34c0.13,2.66,7.57,2.06,8.77-1.34c-0.3-1-0.869,0.26-2.029,0
				c1.27-1.29,0.08-1.7,0-3.37c1.76,0.27,2.04,2.01,4.05,2.02c1-0.57,1.45-1.7,1.35-3.37c2.88-0.07,5.11-1.53,6.73,0.67
				c0.38-0.87-1.42-2.99,2.7-2.69c-0.36,0.54-0.7,1.09-0.67,2.02c2.06,0.49,1.979-1.16,4.04-0.68c-0.301-0.6-0.591-1.2-1.351-1.34
				c0.09-1.49,2.86-0.29,4.05-0.68c-4.439,3.04,4.7,1.35,8.08,1.35c0.101-1.89-1.649-1.94-3.37-2.02c0.12-1.9,3.21-0.84,2.7-3.37
				c-3.569-3.08-9.67,1.06-12.13,3.37c-1.32,0.18-0.37-6.75-1.35-2.7c-0.5-4.25,5.899-1.4,10.109-4.04
				c-6.31-3.87-20.12,0.49-20.22,4.72c-1.18-0.17-1.54-1.16-1.35-2.7l0.68-0.67l-0.68-0.68c-0.19-1.19,3.18-2.08,1.35-2.69
				c1.38-1.32,4.22-1.18,4.72-3.37c0.271-1.62-3.069,0.37-2.02-2.02c4.609,1.86,11.899-3.76,13.479,2.02
				c0.601-0.53,1.521-0.73,2.69-0.68c-0.061,1.84,1.12,1.36,0,2.7c2.27-0.47,2.21,1.39,3.37,2.02c4.7-2.52,10.54-1.92,13.479-0.67
				c1.521,1.94-1.21,4.65,2.7,4.72c0.16,1.96-1.27,2.32-2.03,3.37c0.11,0.78,1.23,0.56,2.03,0.67c-0.38,1.4-1.06,1.43-2.03,0.67
				c0.11,2.8,0.71,5.62,0.681,10.11c-1.19-0.16-1.54-1.16-1.351-2.69c-1.25,0.1-0.41,2.28-1.35,2.69l-0.67-0.33l-0.68,0.33
				c-0.57,0.13-0.631-0.26-0.671-0.67c-4.409,0.61-4.989-2.35-8.76-0.68c-0.359-2.78-5.01-1.28-6.069-3.37
				c-7.931,1.75-13.62,3.1-20.211,3.37C444.718,94.12,445.908,94.529,444.647,95.81z M478.338,87.049c0.39-0.41,1.58-3.19,0-3.37
				C477.948,84.089,476.758,86.879,478.338,87.049z M470.248,89.75c0.93-2.99-5.21-0.6-2.69,0
				C467.998,87.729,468.998,90.39,470.248,89.75z"/>
			<path d="M426.448,289.91c1.979,0.26,1.319,3.17,2.689,4.04C428.008,295.469,426.618,291.58,426.448,289.91z"/>
			<path d="M425.098,73.569c-1.43-0.21-0.14-3.19,1.351-2.69C426.098,71.879,425.448,72.58,425.098,73.569z"/>
			<path d="M425.778,486.699c1.55,0.891-4.101-1.41-4.051-3.37C423.408,484.119,424.718,485.279,425.778,486.699z"/>
			<path d="M425.778,384.93c-0.28,1.68-2.62,0.04-2.03-1.34C424.638,383.819,424.808,384.77,425.778,384.93z"/>
			<path d="M423.748,346.52c0.82-1.99,2.16,2.1,0.68,2.689C422.058,349.029,426.118,346.699,423.748,346.52z"/>
			<path d="M427.118,99.859c-1.48,2.78-5.61,2.92-6.061,6.74c-4.609-0.93-6.6-0.1-8.76,2.69l-0.68-0.33l-0.67,0.33
				c0.12-0.57-0.261-0.63-0.681-0.67l0.341-1.01l-1.011,0.33c0-0.44,0-0.89,0-1.34c-1.43-0.82-1.96-2.54-4.04-2.7
				c2.87-2.61,2.971,3.29,6.74,2.02c0.13-0.63-0.04-0.95-0.37-1.12c3.84,0.45,6.69-4.48,9.8-3.59c1.53-1.39,1.24-1.31,2.021-4.05
				c1.149,3.81,4.229,1.85,7.42,0.68C433.488,99.37,426.638,102.41,427.118,99.859z"/>
			<path d="M423.748,351.239c-0.11,0.79-1.23,0.561-2.021,0.67c-0.189-1.09,0.641-1.16,0.681-2.02c0.76,0.13,0.37,0.67,0,0.67
				C422.418,351.22,423.228,351.09,423.748,351.239z"/>
			<path d="M423.078,382.909c-1.351-1.35-3.42-1.97-4.04-4.04C421.208,377.189,422.378,381.01,423.078,382.909z"/>
			<path d="M419.708,216.449c3.24-0.57-3.2,4.33,0,0.67C419.748,217.069,419.658,216.459,419.708,216.449z"/>
			<path d="M419.368,71.89l-0.33,0.34c0-0.04-0.01-0.07-0.021-0.1C419.138,72.049,419.258,71.969,419.368,71.89z"/>
			<path d="M415.668,478.609c1.86,1.5,4.35,2.38,5.39,4.72C419.188,481.819,416.698,480.939,415.668,478.609z"/>
			<path d="M418.358,279.12c1.029,5.34,0.02,6.04,0.68,10.11c1.46,0.12,0.3-2.39,0.67-3.37c3.13,1.85,3.939,7.6,3.37,9.44
				c-2.87,1.72-2.7-5.37-4.72-6.74c-2.04,1.02,0.56,2.96,0,4.72c-1.761-4.19-3.08-9.91-1.351-14.16l0.68,0.34L418.358,279.12z"/>
			<path d="M418.358,377.52c-0.29,1.86-2.12,0.03-1.351-1.35C417.748,376.34,417.468,377.51,418.358,377.52z"/>
			<path d="M417.688,215.77c1.95,0.38-1.04,1.06-0.68,2.03C414.778,217.14,417.768,216.459,417.688,215.77z"/>
			<path d="M417.288,199.239c-0.28,0.05-0.59-0.04-0.95-0.31C416.848,198.969,417.138,199.08,417.288,199.239z"/>
			<path d="M416.678,255.199l0.33-0.34c-0.38,3.93-0.89,6.97-0.67,12.81l-0.67,0.67l-0.68,0.68c-1.471-0.13-2.141,0.55-2.021,2.02
				h-0.67v0.67c-1.14-0.84-3.45-3.94-0.68-4.72c-3.63-6.57-0.67-14.92,0-18.19l0.68,0.33l0.67-0.33c1.88-0.31-0.53,3.67,1.351,3.37
				l0.34,0.33l0.33-0.33c0.159,1.19-0.681,3.37,1.35,2.69L416.678,255.199z M414.988,267.669c0.109-2.36-0.181-4.32-1.351-5.39
				C412.808,263.91,410.728,268.31,414.988,267.669z M412.968,261.6c0.04-0.86,0.86-0.93,0.67-2.02c-0.439,0-0.89,0-1.34,0
				c-0.04,0.86-0.87,0.93-0.68,2.02C412.068,261.6,412.518,261.6,412.968,261.6z"/>
			<path d="M415.668,220.489c1.52-2.74-0.31,1.58-0.68,2.02C414.018,223.689,415.468,220.85,415.668,220.489z"/>
			<path d="M416.338,349.89c-0.79-0.11-0.57-1.23-0.67-2.021c1.14-0.25,1.27,0.521,1.34,1.34
				C416.438,349.09,416.378,349.479,416.338,349.89z"/>
			<path d="M414.318,108.62c1.359,1.06,1.79,2.41,1.35,4.04C414.698,111.83,414.388,110.339,414.318,108.62z"/>
			<path d="M411.618,194.879c1.76-0.19,2.899,0.25,2.7,2.02C412.558,197.089,411.418,196.66,411.618,194.879z"/>
			<path d="M414.988,99.859c-1.591,0.88-6.221-0.94-6.74-3.37C410.988,97.12,412.328,99.149,414.988,99.859z"/>
			<path d="M412.968,184.77c1.88-0.3-0.53,3.68,1.351,3.37C412.868,190.609,412.758,186.189,412.968,184.77z"/>
			<path d="M412.298,306.079c-0.439-2.449,3.21-0.83,3.37-2.689C416.647,303.77,414.828,306.989,412.298,306.079z"/>
			<path d="M408.928,128.839c1.9,0.55,1.74-0.95,3.37-0.68c-3.41,3.03-2.9,5.23-6.74,9.44c-1.08,2.74,4.98,4.96,0.67,4.72
				c0.11,0.79,1.23,0.56,2.021,0.67c0.01,3.18-3.67,6.19-1.34,9.43c-0.17,1.19-1.16,1.54-2.7,1.35c0.49,2.06-0.69,2.46-0.67,4.05
				c0.439,2.01,1.439-0.65,2.689,0c-1.369,1.36-1.859,3.12-4.04,2.02c1.391-4.85-0.04-8.48,0.671-14.15
				c2.409,3.2-2.621-9.97,2.699-14.16v0.68h0.67c0,0.45,0,0.89,0,1.34C407.598,132.449,408.918,131.299,408.928,128.839z"/>
			<path d="M410.268,180.06c0.32-1.87,2.38,0.99,1.351,2.02C411.518,182.179,410.318,179.799,410.268,180.06z"/>
			<path d="M411.928,104.799c-0.319-0.04-0.649-0.11-0.979-0.23C411.318,104.609,411.668,104.649,411.928,104.799z"/>
			<path d="M414.988,298.669c-2.32,2.85-3.971,6.36-7.41,8.09c-1.12-1.34,0.06-0.86,0-2.7
				C412.558,304.779,411.178,299.12,414.988,298.669z"/>
			<path d="M410.268,479.959l-0.67-0.34l-0.67,0.34c-1.069-1.189-3.1-1.399-3.37-3.369l0.33-0.681l-0.33-0.67
				c0.88,0.061,1.761,0.101,1.98-0.5C407.318,476.3,410.268,477.01,410.268,479.959z"/>
			<path d="M409.598,190.839c0.891-0.33,0.3,3.34-1.35,2.69C408.598,192.54,409.248,191.839,409.598,190.839z"/>
			<path d="M402.188,68.179l0.33,0.34l0.341-0.34c2.939,0.47,3.8-1.14,6.739-0.67c-0.56-2.17-0.569-1.4,0.67-2.7l1.021-0.33
				l-0.34-1.02c0.189-2.27,2.1-2.84,2.689-4.71c2.851-0.12-0.01,1.03,0,2.02c2.34,0.54,2.601-1,4.721-0.68l-0.33,0.34l0.33,0.34
				c2.119,2.19-2.221,1.74-3.37,2.69c0.47,1.34,1.8,1.8,3.37,2.03c-2.671,1.59-3.29-0.38-6.74,0c3.84,2.45,8.38,4.2,12.13,6.74
				c-0.29,1.94-1.42,3.07-3.37,3.37c-0.86-1.59,0.09-1.26-0.67-3.37c-0.22,0-0.45,0-0.67,0l0.33-0.34
				c-0.11,0.08-0.23,0.16-0.351,0.24c-0.25-2.18-2.27-2.6-4.029-3.27l-0.67-0.51l-0.681,0.51c-4.76,0.76-6.899,0.41-9.43,5.39
				c-2.13,0.33-2.38-1.22-4.72-0.68C400.418,70.569,401.498,71.66,402.188,68.179z"/>
			<path d="M408.928,353.26c-1.03,0.76-2.56-3.7-2.7-6.07C408.448,347.89,407.688,351.579,408.928,353.26z"/>
			<path d="M408.248,255.54c1.04,2.91,1.58,7.8-2.021,7.41C408.708,260.939,407.238,257.989,408.248,255.54z"/>
			<path d="M406.908,298.669c1.43-3.96,3.64-7.14,6.729-9.44C415.238,290.969,410.218,297.379,406.908,298.669z"/>
			<path d="M406.228,157.14c-2.029,0.68-1.189-1.5-1.35-2.69C405.788,154.89,406.138,155.89,406.228,157.14z"/>
			<path d="M402.858,333.709c0.01-0.05,0.02-0.09,0.029-0.13c-0.029,0.17-0.069,0.37-0.12,0.591
				C402.798,334.029,402.828,333.88,402.858,333.709z"/>
			<path d="M402.598,335.02c-0.02,0.1-0.04,0.189-0.05,0.26C402.558,335.22,402.578,335.13,402.598,335.02z"/>
			<path d="M398.818,288.56c-0.24,0.88-1.19,1.06-1.35,2.02c-0.97-0.15-0.23-2.01-1.35-2.02
				C396.218,286.879,398.398,288.359,398.818,288.56z"/>
			<path d="M395.448,251.489c-0.55-0.13-0.67-0.67-1.35-0.67c0-0.45,0-0.9,0-1.35C395.538,249.16,395.378,250.429,395.448,251.489z"
				/>
			<path d="M393.428,483.329C396.608,484.38,394.318,486.67,393.428,483.329L393.428,483.329z"/>
			<path d="M394.768,70.879c0,0.02,0,0.04,0,0.06c-0.11,0.08-0.22,0.18-0.33,0.27L394.768,70.879z"/>
			<path d="M377.928,73.569c8.24-2.85,10.64,2.48,16.17-2.69l0.34,0.33c0.11-0.09,0.22-0.19,0.33-0.27c0,0.2,0,0.41,0,0.61
				c0.55,0.58,3.13,1.35,4.05,3.37c-4.34,0.11-11.91,1.87-16.85-0.67c0,1.93,0.98,1.94-3.37,1.35c-0.77,2.79,1.42,2.62,1.35,4.71
				c-3.9-0.71-4.53,0.09-6.74-0.67c0.08-1.49,2.86-0.29,4.04-0.67c0-0.9,0-1.8,0-2.7c-2.75-0.28-2.72,2.22-6.06,1.35
				c2.36-2.75,4.56-3.67,3.37-7.42C375.968,71.04,377.088,72.16,377.928,73.569z M391.398,74.919c1.16,0.04,1.73-0.52,2.03-1.35
				C392.368,73.64,391.088,73.479,391.398,74.919z"/>
			<path d="M393.428,417.959c-0.61,1.801,3.57,1.44,4.04,4.04c-2.91-1.81-6.55-2.88-9.43-4.72
				C390.148,415.499,391.688,419.359,393.428,417.959z"/>
			<path d="M390.058,498.829c1.01-2.229,1.64,1.4,3.37,0.67C392.808,501.329,391.058,498.81,390.058,498.829z"/>
			<path d="M390.058,342.47c1.79,0.689,3.83,1.109,4.04,3.37C393.088,344.38,390.228,344.77,390.058,342.47z"/>
			<path d="M392.078,251.489c-2.4-1.03,0.28-4.52-0.68-2.69C391.778,250.169,393.428,250.12,392.078,251.489z"/>
			<path d="M391.398,359.319c0.01-0.05,0.02-0.09,0.03-0.13c-0.03,0.17-0.07,0.37-0.12,0.59
				C391.338,359.64,391.368,359.489,391.398,359.319z"/>
			<path d="M391.138,360.63c-0.02,0.1-0.04,0.189-0.05,0.26C391.098,360.829,391.118,360.739,391.138,360.63z"/>
			<path d="M390.058,291.929c0.33,1.31-3.35,2.42-2.7,0C388.698,293.049,388.218,291.87,390.058,291.929z"/>
			<path d="M387.358,194.209c-1.69-0.29,0.65-1.93,2.02-1.35C389.228,193.83,387.368,193.1,387.358,194.209z"/>
			<path d="M389.378,457.039c-1.15,2.37-1.35-1.689-2.69-1.34C387.148,454.02,388.738,456.689,389.378,457.039z"/>
			<path d="M388.708,497.479C385.528,496.43,387.808,494.14,388.708,497.479L388.708,497.479z"/>
			<path d="M383.318,453.67c0.66-2.061,1.8,0.779,2.69,0.68C385.828,455.939,384.208,453.579,383.318,453.67z"/>
			<path d="M386.008,494.779C384.418,496.949,383.288,492.409,386.008,494.779L386.008,494.779z"/>
			<path d="M381.298,461.09c-0.4-0.62,4.02-0.511,3.37,1.35C382.988,462.539,382.578,461.38,381.298,461.09z"/>
			<path d="M383.988,261.6c2.75-0.2,0.36,1.41,0.68,2.7C383.748,264.089,384.108,262.609,383.988,261.6z"/>
			<path d="M381.968,452.329C378.788,451.27,381.068,448.989,381.968,452.329L381.968,452.329z"/>
			<path d="M380.618,233.969c1,0.29-0.26,0.86,0,2.02c-1.37-0.2-1.32-1.82-2.69-2.02
				C377.988,231.89,380.558,236.049,380.618,233.969z"/>
			<path d="M380.618,184.77c0,0.45,0,0.9,0,1.35c-0.45,0-0.9,0-1.35,0c0-0.45,0-0.9,0-1.35
				C379.718,184.77,380.168,184.77,380.618,184.77z"/>
			<path d="M379.268,227.91c-0.64-2.43,2.91-1.2,3.37-0.68C382.178,228.129,380.848,226.899,379.268,227.91z"/>
			<path d="M377.248,293.949c-0.11-1.46,2.39-0.3,3.37-0.67C380.738,294.739,378.228,293.58,377.248,293.949z"/>
			<path d="M375.898,447.609c1.47-0.12,2.15,0.55,2.03,2.021C376.458,449.749,375.778,449.079,375.898,447.609z"/>
			<path d="M375.898,188.819c-1.82-0.61,0.32-2.74,2.03-2.02C377.848,188.069,375.698,187.259,375.898,188.819z"/>
			<path d="M373.208,488.72c0.66-2.07,1.8,0.77,2.69,0.67C375.238,491.459,374.108,488.619,373.208,488.72z"/>
			<path d="M374.558,446.93c1.81,1.26-1.17-0.54-2.7,0c0.11-0.78-0.15-1.19-0.67-1.34
				C371.938,443.81,373.798,446.489,374.558,446.93z"/>
			<path d="M370.508,75.6c-2.43-2.44,4-1.98,2.02,0C372.468,75.66,370.578,75.66,370.508,75.6z"/>
			<path d="M369.158,486.699c-2.07-1.029,2.99-0.66,2.03,1.34c-0.68,0-1.35,0-2.03,0c-0.12-0.569,0.27-0.63,0.68-0.67
				C369.958,486.8,369.578,486.739,369.158,486.699z"/>
			<path d="M369.838,446.26l-0.56,0.56l-0.12,0.79c-5.57-4.08-11.5-7.81-16.84-12.13l0.78-0.11l0.56-0.569
				C358.268,436.939,369.648,441.819,369.838,446.26z"/>
			<path d="M510.688,219.14c0.721-1.37-0.779-5.19-2.02-6.74C507.158,214.569,508.088,218.959,510.688,219.14z M497.888,217.799
				c3.21-0.28,7.44,1.96,10.11,0c-1.12-0.68-0.74-2.87-1.351-4.05C502.868,214.689,500.858,215.12,497.888,217.799z
				 M491.147,206.339c0-0.67,0-1.35,0-2.02c-1.729,0.57-5.39,5.46-4.05,4.72c6.061-1.38,14.24-4,22.92-4.72
				c3.011-2.5,1.601-8.65,3.37-10.79c-5.79,1.07-18.479,3.1-20.22,9.44c-0.76,0.07-1.05-0.98-1.35,0c0.949,0.18,0.77,1.48,1.35,2.02
				C491.838,204.79,491.828,205.899,491.147,206.339z M493.168,214.429c-1.33-3.97-4.09,0.48-6.74-1.35
				c-0.2,1.77,0.931,2.21,2.7,2.02c-0.47-1.81,1.39-1.3,2.02-2.02c0.101,0.79-0.119,1.91,0.671,2.02c0.149-0.52,0.02-1.33,0.68-1.35
				C492.528,214.16,492.598,214.549,493.168,214.429z M476.988,215.77c-1,0.12-2.48-0.24-2.69,0.68
				C475.188,217.319,476.808,217.339,476.988,215.77z M466.888,219.819c0.46-1.81-1.399-1.3-2.029-2.02
				c0.199,1.77-2.61,0.53-2.021,2.69c2.17,0.59,0.93-2.22,2.7-2.02C465.678,219.229,466.288,219.52,466.888,219.819z
				 M435.878,227.229c-1.72,0.07-3.21,0.38-4.04,1.35C433.428,229.049,436.118,230.129,435.878,227.229z M404.878,231.27
				c0.04,0.42,0.1,0.8,0.68,0.68c0.931-1.76,3.48-1.91,5.391-2.7c0,0.38,0.54,0.77,0.67,0c-2.17-2.12-5.431-0.34-7.41,1.35
				C404.618,230.64,405.008,230.699,404.878,231.27z M390.058,233.969c-1.16-0.04-1.73,0.52-2.02,1.35
				C389.188,235.35,389.758,234.799,390.058,233.969z M525.518,199.6c0.101-3.07,0.561-2.64,0-5.39
				c-6.819,2.98-3.149,14.88-3.37,22.91c-0.17,6.09-2.489,13.67,2.69,16.85c2.09-1.32-1.51-4.17,0.68-5.39
				c0.061,1.06-0.09,2.34,1.351,2.02c1.85-4.64,5.75-10.14,3.37-16.85c0.67,0,0.8,0.55,1.34,0.68c0.28-1.63-1.23-1.47-0.67-3.37
				c-1.16-0.27-1.73,1-2.021,0c-0.58-3.28,3.271-2.12,2.69-5.39c-2.391-1.05-0.4,2.28-2.021,2.02c-0.41-0.04-0.8-0.1-0.67-0.68
				c-0.189-2.43,2.66-1.82,2.69-4.04c-1.17-0.62-1.48-2.11-1.34-4.04c-1.98,0.04-1.99,2.05-3.37,2.69
				C527.068,200.299,525.958,200.29,525.518,199.6z M538.998,217.12c-2.101-1.05-3.18-3.11-5.39-4.04
				c-1.921,1.74,2.989,2.36,2.689,4.72v0.67v0.67c-0.57,0.13-0.63-0.26-0.67-0.67c-6-1.5-3.03,9.37-4.72,14.15
				c-2.57,0.58-3.65,2.64-4.04,5.39c-2.7-3.41-2.57,1.76-2.7,2.7c-3.05,0.5,1.03-1.85-2.021-1.35c-0.069,1.06-2.35,3.27-4.72,2.02
				c3.9-8.29-4.8-13.8-5.39-20.21c-6.55-0.89-14.141,3.04-16.18-2.7c-2.381-0.36-1.65,2.39-4.04,2.02
				c0.909-7.02-16.16,0.22-16.171-2.02c-0.85,0.17-0.68,1.34,0,1.35c-0.6,1.82-2.989-0.57-1.35-1.35c-1.97,0.61-2.07,0.61-4.05,0
				c0.17,1.19,1.17,1.54,2.7,1.35c-3.101,0.92-8.551,2.77-10.78,2.69l0.34-1.01l-0.34-1.01c-1.7-2.47-12.08,0.48-15.5,3.37
				c1.18,0.19,3.36-1.9,4.04,0c-0.57-0.12-0.63,0.26-0.67,0.68l-0.34,0.67l0.34,0.67c-3.05-0.79-1.51,2.99-4.72,2.03
				c0.1-1.85,0.13-3.48-1.351-2.03c-1.609-0.38,1.63-1.92,2.021-0.67c0.37-1.49-1.28-0.96-1.341-2.02
				c-1.869-0.35-3.97,3.79-2.699,0.67c-2.69-0.66-2.03,2.02-4.721,1.35c3.57,1.66,0.57,3.04,6.74,1.35c-2.63,1-8.51,5.42-12.8,2.69
				c2.78,1.92-8.79,3.26-11.46,4.72l-0.67-0.34l-0.68,0.34c-0.461-1.68-1.801,1.25-3.37,0.67c-0.49,2.07,1.17,1.99,0.68,4.05
				c-0.55-0.36-1.1-0.7-2.03-0.68l-0.67-0.33l-0.67,0.33c0-0.89,0-1.79,0-2.69c-5.67,0.95-7.22,2.52-13.48,3.37
				c0.3,0.6,0.59,1.2,1.35,1.35c-0.21,2.24-2.34-2.89-2.03,0.67c-1.2-0.49-0.09-1.23,0-2.02c-2.51-0.72-2.17,1.42-3.37,2.02
				c2.62,0.41,3.64,3.77,2.03,6.07c1.2,1.37,2.48,0.18,1.34,2.69c2.79,0.54,3.46-1.03,3.37-3.37c2.15-0.58,2.09,1.06,3.37,1.35
				c-0.29,1-0.86-0.27-2.02,0c5.939,3.65,0.97,10.86,0.68,16.85c0.49,0.63,1.22,1.02,2.02,1.35c0.69-0.66,1.36-1.34,2.021-2.03
				c-0.66,4.79-6.87,13.91-1.351,16.85c-1.56,3.09-0.77,5.99-4.72,8.76c1.09,2.93,0.84-0.74,3.37,0c-1.36,1.56-2.42,3.43-4.04,4.72
				c1.67,3.06-0.03,1.8,0.67,4.72c-1.41-0.39-1.92-1.67-4.04-1.35c0.44,0.91,1.44,1.26,2.7,1.35c-1.71,3.27,0.06,3.07-1.35,7.41
				c1.3-0.27,0.06-3.08,2.69-2.02c-2.39,3.32,2.021,10.22-1.34,14.149c1.8,2.04,0.81,9.631,2.69,13.48
				c-0.9,1.51-1.11-3.32-2.021-4.04c0.19,3.78-2.7,10.16,0.67,13.48c1.73-0.98,1.17-4.23,3.37-4.721
				c-0.72,1.74,0.8,6.141,1.35,8.761c-1.149,1.76-1.17-3.271-2.02-4.04c-1.19,1.27-2.09-0.921-2.7,1.34c0.3,1,0.87-0.261,2.03,0
				c-0.561,1.91,0.95,1.75,0.67,3.37c-0.54,1.76-1.13-1.92-1.35-2.69c-2.331,6.09,3.55,15.21,8.09,18.87
				c1.949-0.271-2.391-5.4,0-4.05c1.939,4.8,4.88,8.609,8.76,11.46c-0.44,2.02-1.44-0.641-2.7,0c1.21,0.85,3.71,3.89,5.4,2.02
				c-0.271,1.681,2.729,3.34,6.729,2.7c-0.59,6.55,5.7,2.58,7.42,6.06c-2.979,1.53,0.21,4.011,1.351,5.4
				c-1.931-0.26-5.601-1.9-6.74-4.05c0.54,0.36,1.09,0.71,2.02,0.68c-3.899-4.92-5.029-0.96-9.439-6.069
				c-2.21,1.619,2.46,1.989,1.35,4.72c-2.01-2.48-3.739-5.24-6.06-7.41c-0.45,2.81-0.74-1-4.05-0.68c-1,0.3,0.27,0.859,0,2.02
				c-7.29-5.06-10.681-14.03-17.521-19.54h-0.67v0.67c-0.47-2.21-1.93-4.14-2.03-6.06c-0.08-1.71,1.79-1.28,2.03-2.7
				c0.06-0.37-3.51-5.82,0-3.37c-3.27-5.36,1.28-7.229,2.02-10.78c-1.62,0.25-2.3-5.479,0.67-6.069c-1.56-2.63,0.13-4.8-0.67-10.11
				c-2.45-0.65-0.31,3.29-3.37,2.03c1.68,1.18,0.98,1.109,0,2.689h-0.68v0.681c-0.58,1.279-0.4-0.73-1.34-0.681
				c-0.49-2.06,0.69-2.449,0.67-4.04c-0.59-1.989-1.01,1.561-2.7,0.67c0.24-0.88,1.19-1.06,1.35-2.02
				c-0.07-1.73-2.51-1.08-3.37-2.02c-1.01,1.6-1.02,2.489-3.37,1.35c3.55-0.811,0.57-3.7,0-6.07c-2.49,0.2-2.42,2.971-6.06,2.021
				l0.33-0.67l-0.33-0.67c0.13-0.551,0.67-0.681,0.67-1.351c-2.42,0.4-3.8-0.24-4.04-2.02c2.18,1.46,1.26-0.09,2.02-0.681
				c1.18-0.39,3.96,0.82,4.04-0.67c-2.76-4.71,4.52-2.54,7.42-2.7c0.58,3.011,1.67,5.521,2.02,8.761c4.88-0.7,1.29,3.34,4.72,3.37
				c-1.27-1.841,2.58-4.341-0.68-6.061c0.96,0.061,1.91,0.11,2.02-0.68c-1.63-2.05-0.48-3.37-2.69-5.391c0.6-0.3,1.2-0.59,1.35-1.35
				c-0.96,0.061-1.91,0.12-2.03-0.67c0.58-3.41,4.59-4.64,2.03-8.76c3.83,0.01,2.32-5.31,5.39-6.07
				c-1.66-4.38,1.971-9.96,0.671-18.87c-4.63,0.33,0.96-5.41-3.371-5.39c2.53-3.58,3.35-8.29,2.7-12.8
				c-1.37,1.89-1.209,2.76-0.68,5.39c-2.11-1.12-2.75,2.51-3.37,0.67c2.27-5.07-2.78-6.48-6.74-8.76c-0.67,0.9-1.11,2.04-2.02,2.7
				c0.74-2.83,2.04-4.5,0-6.07c1.69-0.11,2.11,1.04,2.7,2.02c-0.6-0.41-1.21-0.81-1.35,0c1.21,0.64,3.75,3.39,5.39,1.35
				c-2.51-1.35-1.53-2.01-2.02-5.39c-1.07,0.06-2.57-0.32-2.7,0.67c0.75,0.46,3.5,2.24,2.03,2.7c-2.69-2.5-4.97-2.07-7.42-2.02
				c-0.71,2.5,2.28,1.32,2.7,2.69c-0.42,0.6-0.82,1.21,0,1.35c0.13-0.76,0.67-0.37,0.67,0c-0.3,0.6-0.59,1.21-1.34,1.35
				c-0.79-2.81-4.23-2.97-4.05-6.74c2.24-1.29,2.93-0.22,4.05-2.02c-5.4-0.3-2.15,1.14-6.07,2.69c-2.33-3.29-9.11-5.7-11.46-6.74
				c-0.42,1.4-4.99,4.43-9.43,4.05c-2.68,3.83-7.01,6.02-9.44,10.11l-0.67-0.34l-0.68,0.34c1.59-13.05,15.59-15.63,25.61-18.2
				c0.92,0.21,0.56,1.69,0.68,2.7c-1.35,0-2.7,0-4.05,0c1.97,3.2,7.81,2.52,10.79,4.71c0.03-1.15-0.5-1.74-1.35-2.02
				c3.27,0.43,1.24-1.49,3.37-2.69c2.08-1.17,7.69-0.81,11.46-2.03c5.88-1.9,10.9-5.5,14.82-6.73c2.54-0.8,7.22,0.61,6.74-3.37
				c2.029,1.06,1.109,2.41,0,4.04c2.119-0.75,1.779-0.32,3.369,0.67c1.99-0.58-1.56-1.01-0.67-2.69c3.38,0.23,4.61-1.68,5.391-4.05
				c0.859-2.09,0.859,1.92,0,2.03c1.569,0,3.14,0,4.72,0c-0.66,0.69-1.33,1.36-2.03,2.02c0.36,0.54,0.71,1.09,0.681,2.02
				c0.3-1.63,4.829-1.61,4.72-2.7c16.1-3.35,26.99-6.42,42.45-10.11c2.46-2.49,3.17-6.71,4.72-10.1l-0.33-1.02l0.33-1.01
				c2.56-2.83,7.74-3.05,8.09-8.08c5.1,0.6,3.85-5.14,8.09-5.39c-0.439,0.68-1.55,0.69-1.35,2.02c7.62-2.31,13.3-4.3,16.85-9.44
				c1.37,0.2,1.32,1.83,2.69,2.02c0.91-0.86,1.35-2.05,2.02,0c1.49-0.08,0.29-2.86,0.681-4.04c2.71,0.88,1.649,1.33,4.04,0
				c0.149,4.11,3.979,4.55,2.71,10.09c-0.011,0.01-0.011,0.01-0.011,0.02c0.011-0.01,0.011-0.01,0.011-0.02
				c4.399-5.51-5.45-12.52-5.4-20.2l0.67,0.34l0.67-0.34c7.48,10.27,12.48,23.05,10.79,35.05c0.11,0.79,1.23,0.56,2.021,0.67
				C530.228,209.33,538.188,212.819,538.998,217.12z M369.838,233.969c-2.67-0.2-4.12,0.82-5.39,2.02
				C366.528,235.259,368.628,236.589,369.838,233.969z M395.448,233.299c0-0.45,0-0.9,0-1.35c-0.45,0-0.9,0-1.35,0
				c0,0.45,0,0.9,0,1.35C394.548,233.299,394.998,233.299,395.448,233.299z M412.298,366.739c-2.39-0.08,1.43-2.229-0.68-2.03
				c-0.01,0.9-1.181,0.62-1.351,1.351C411.248,365.699,411.918,368.689,412.298,366.739z M401.508,355.279
				c-0.78-3.71-0.76-8.22-2.69-10.78C399.598,348.499,398.508,352.459,401.508,355.279z M396.118,318.209
				c0.04-1.159-0.52-1.729-1.35-2.02C394.738,317.35,395.288,317.92,396.118,318.209z M390.728,310.8
				c-0.26-1.761-0.35-3.7-1.35-4.721C387.678,307.859,389.408,310.01,390.728,310.8z M386.008,305.409c-0.9,0-1.79,0-2.69,0
				c0,0.67,0,1.351,0,2.021c0.67,0,1.35,0,2.02,0C385.308,306.499,385.658,305.949,386.008,305.409z M427.798,225.879
				c0.811-1.34,0.55-2.88,0-3.37C426.978,223.859,427.238,225.39,427.798,225.879z M418.358,227.91c1.279-0.3,4.06,0.91,3.369-1.35
				c-1.25-0.65-2.25,2.02-2.689,0c0.37,0,0.76-0.55,0-0.68c-0.04,0.41-0.101,0.8-0.68,0.68
				C418.358,227.009,418.358,227.459,418.358,227.91z M482.388,201.62c-0.97,2.58,3.351,0.49,2.021-0.67
				C483.808,200.429,482.478,201.359,482.388,201.62z M526.188,189.489c-2.029-0.53-4.659-0.1-6.739,1.35
				C522.558,190.489,525.018,192.489,526.188,189.489z M514.738,195.56c2.62-0.48,0.029,2.36,0,3.37c2.52-0.24,2.52-5.16,0-5.4
				C514.738,194.209,514.738,194.879,514.738,195.56z M530.238,229.25c0.38-0.41,1.569-3.19,0-3.37
				C531.108,227.56,528.258,228.679,530.238,229.25z M517.428,227.91c-0.47-5.19,0.37-7.53-2.02-10.79
				C514.048,220.29,514.278,227.069,517.428,227.91z M485.758,216.449c0.49-1.1-1.34-2.93-1.35-1.35c0.41,0.04,0.8,0.1,0.67,0.67
				c-1.01,0.12-2.49-0.24-2.69,0.68C483.268,217.31,484.868,217.31,485.758,216.449z M480.358,217.799
				c1.619-1.62-2.211-1.75-2.021-0.68C478.328,217.08,480.618,217.54,480.358,217.799z"/>
			<path d="M373.878,248.12c2.3-8.01-15.8-1.26-16.85,4.05c-3.41-1.98,0.51-6.11,3.37-6.07c2.84-3.9,7.9-5.58,15.5-4.72
				c3.99,2.98,6.63,7.31,11.46,9.44c-0.57,1.98-1.69-0.88-3.37,0c0.61,5.51,2.73,7.65-1.35,8.76c1.03,2.29,0.58,6.22,0,10.11
				c-3.18,0.01-6.01,1.71-4.71,2.69c0.36,0.47-5.39-0.66-3.37-2.02c-5.07,0.11-5.11,5.24-6.07,9.44c-0.19-4.35-1.91-3.99,0.67-6.74
				c-0.57-1.98-2.17,0.4-3.36,0c1.3-6.78,9.29-4.11,10.1-8.76c5.45,3.64,5-5.09,5.4-6.74c-2.84-0.59-2.26,2.24-3.37,3.37
				c-1.75-0.57,1.29-2.96-0.68-4.05c-2.77-0.52-3.46,1.04-6.06,0.68c-1.16-1.09-1.68-2.82-1.35-5.39c3.5,1.37,0.37-1.17,2.69-2.02
				c0.98,0.29-0.06,0.59,0,1.34c2.08,0.51,1.3-1.85,3.37-1.34C375.248,249.459,374.568,248.779,373.878,248.12z"/>
			<path d="M367.818,405.819c-2.31,1.83-3.99-2.72-7.42-2.02C361.018,401.76,366.558,404.26,367.818,405.819z"/>
			<path d="M365.798,279.799c0.62,0.49,1.02,1.22,1.34,2.02C366.848,283.509,365.688,280.699,365.798,279.799z"/>
			<path d="M367.138,277.1C366.928,280.429,364.088,277.589,367.138,277.1L367.138,277.1z"/>
			<path d="M362.428,78.29c1.68-0.56,2.64-1.85,4.71-2.02c-1.81,1.78-3.96,3.22-4.71,6.07
				C360.588,81.709,363.368,80.229,362.428,78.29z"/>
			<path d="M362.428,483.999c0.16-1.739,1.16,0.931,2.69,0C365.018,485.68,362.838,484.199,362.428,483.999z"/>
			<path d="M360.398,128.16c0.79,1.01,1.95,1.65,2.03,3.37C360.528,131.629,360.478,129.879,360.398,128.16z"/>
			<path d="M354.338,77.62c4.95-2.16,8.21-7.28,14.82-9.44c-4.02,1.37-5.47,5.31-7.41,8.76c0.13,0.55,0.68,0.68,0.68,1.35
				c-2.12-0.31-1.9,1.7-2.7,2.7c-1.7,1.79,1.41-2.99-1.35-2.7c-2.9,0.74-9.92,0.9-7.41,7.41c-2.21,1.51-1.79-5.37-4.72-5.39
				c2.46-2.26,6.2-3.24,9.44-4.71C355.448,76.479,354.498,76.66,354.338,77.62z"/>
			<path d="M360.398,262.949c1.79,1.18,1.33,3.17-2.02,4.04c0.55,0.49,1.81,4.67-0.67,4.05c2.96,1.52-0.03,1.81,2.69,4.04
				c-0.89,0-1.79,0-2.69,0c0.81,0.89,0.26,1.06,0,2.02c2.68,3.61,5.14,7.44,10.11,8.76c1.5-0.29,0.27-3.32,0.67-4.71
				c4.6-3.94,10.83-6.24,16.85-8.77c1.08,2.83-1.14,2.09,0,5.4c-5.69,5.19,1.9,9.41,2.7,13.48c-2.07,0.48-1.99-1.17-4.05-0.68
				c0.28,1.3,2.61,0.53,2.02,2.7c-3.96-3.15-8.76-5.41-14.82-4.72c0.3,1.72,0.94,3.1,2.02,4.04c0.35-2.08,1.81,0.54,4.72-1.34
				c-0.44,0.68-1.55,0.69-1.35,2.02c-9.76-0.59-7.91-7.88-16.85-7.42c1.05-2.07-1.94-2.1-2.7-3.37c-3.82-6.38-2.18-16.21,0-22.91
				c1.78,0.01,4.48-0.37,2.7,1.35c1.38-0.19,1.34-1.8,2.02-2.7c0.41,0.39,3.2,1.58,3.37,0
				C366.278,259.87,361.808,261.64,360.398,262.949z M372.528,285.859c0-0.45,0-0.89,0-1.34c-0.44,0-0.89,0-1.34,0
				c0,0.45,0,0.89,0,1.34C371.638,285.859,372.088,285.859,372.528,285.859z"/>
			<path d="M357.028,401.779c0.68-1.899,2.87,0.19,4.05,0c-0.3,0.83-0.87,1.391-2.02,1.351
				C359.368,401.689,358.088,401.84,357.028,401.779z"/>
			<path d="M357.708,301.359c3.13,0.14,0.26,3.72,0.67,5.4C356.508,305.22,359.298,303.189,357.708,301.359z"/>
			<path d="M357.028,308.1c1.41-1.47-0.16,3.83-0.67,4.72C355.118,311.8,356.598,310.51,357.028,308.1z"/>
			<path d="M353.658,130.859c0.62,1.18,2.11,1.49,4.05,1.35c-0.62,1.17-2.11,1.48-4.05,1.34c-2.42-3.18-0.84-7.28,0.68-10.11
				C357.908,124.75,352.348,127.449,353.658,130.859z"/>
			<path d="M352.988,319.56c2.35-0.601,1.15,2.2,0.67,2.7C352.748,322.05,353.108,320.569,352.988,319.56z"/>
			<path d="M354.338,479.959c-1.78,1.74-3.92-1.89-6.07-2.02C347.288,476.649,353.348,478.84,354.338,479.959z"/>
			<path d="M352.988,531.85c-0.29,1.689-1.45-1.12-1.35-2.021C352.268,530.319,352.658,531.05,352.988,531.85z"/>
			<path d="M353.658,74.25C352.178,76.31,349.348,73.469,353.658,74.25L353.658,74.25z"/>
			<path d="M348.948,286.54c1.27,0.07,0.46,2.23,2.02,2.02C350.758,289.979,348.628,287.85,348.948,286.54z"/>
			<path d="M352.318,173.319c-1.88,2.39-3.81,4.73-6.74,6.06C347.368,176.899,348.958,174.229,352.318,173.319z"/>
			<path d="M348.948,262.949c-3.12,3.74,0.7,11.7,2.02,16.17c-1.99-1.15-1.93-4.35-3.37-6.06c-1.2,3.68,0.99,8.48,5.39,10.11
				c5.38,10.31,14.88,18.67,24.26,22.91c-2.51-0.05-2.17-1.01-3.37,0.681c-1.68-1.931-6.05-4.71-7.41-4.721l-0.56,0.561l-0.11,0.79
				c-3.29-1.431-4.69-4.76-7.42-6.74c-1.7,0.88,1.77,2.21,1.35,4.04c-3.16-1.11-2.86-5.67-5.39-7.41c-2.2,1.39,0.49,3.48,0.67,4.71
				c-3.09-1.7-1.26,1.97-2.02,5.4c1.29-4.79,3.94,6.06,0,6.06c0.3-0.6,0.59-1.2,1.35-1.35c-0.21-0.91-1.69-0.561-2.7-0.67
				c-0.14,5.3-3.5,8.689,0,13.479c-1.5,0.74-3.3,1.19-3.37,3.37c-1.92-0.91-0.02-3.54,1.35-3.37c0.16-0.87-1.93-1.109-2.64-0.439
				c0.69-2.37,3.01-7.94-0.06-11.021c2.77-2.37,4.87-10.42,2.7-12.13c10.33-9.21-9.32-16.36-4.72-28.3
				c-1.38,0.31-1.56-1.77-1.34-4.72c0.77-2.18,0.76,1.81,0.67,2.69c1.52-1.39,0.83-5.01,2.02-6.74l0.67,0.34l0.68,0.34
				C348.428,261.219,348.978,261.79,348.948,262.949z M357.708,294.629c0.03-1.16-0.52-1.73-1.35-2.03
				C356.318,293.759,356.878,294.33,357.708,294.629z M350.968,306.76c0.87-0.9,0.89-2.511-0.68-2.7
				C350.408,305.069,350.048,306.55,350.968,306.76z"/>
			<path d="M348.948,337.76c-0.3,0.83-0.87,1.38-2.03,1.35C346.608,337.67,347.888,337.819,348.948,337.76z"/>
			<path d="M346.798,321.329c0.03,0.08,0.07,0.16,0.12,0.25C346.828,321.56,346.798,321.47,346.798,321.329z"/>
			<path d="M346.978,320.47c-0.11,0.37-0.18,0.66-0.18,0.85C346.658,320.949,346.758,320.659,346.978,320.47z"/>
			<path d="M347.598,136.919c-0.16,1.19-1.16,1.54-2.7,1.35C345.348,137.37,346.338,137.02,347.598,136.919z"/>
			<path d="M344.228,440.869c0,0.45,0,0.9,0,1.351c-0.45,0-0.9,0-1.35,0c0-0.45,0-0.9,0-1.351
				C343.328,440.869,343.778,440.869,344.228,440.869z"/>
			<path d="M342.208,175.339c-1.28-2.2,4.93-2.69,4.71-6.07c-2.19-0.17-1.94,2.1-3.36,2.7c0.28-2.43,3.84-7.38,6.73-9.44
				c-1.1,2.87-3.53,3.92-1.34,6.74C346.688,171.29,345.158,174.029,342.208,175.339z"/>
			<path d="M343.558,76.27c-0.17,1.19-1.16,1.54-2.7,1.35C341.018,76.429,342.018,76.08,343.558,76.27z"/>
			<path d="M340.188,473.89C344.128,474.789,337.748,477.079,340.188,473.89L340.188,473.89z"/>
			<path d="M338.838,376.17C341.758,376.449,338.128,380.079,338.838,376.17L338.838,376.17z"/>
			<path d="M339.508,438.85c-1.45,2.05-2.86-1.58-4.72-1.351C336.168,435.52,338.318,438.409,339.508,438.85z"/>
			<path d="M332.768,270.359c-1.14-0.33,0.46-3.52,2.7-2.69C335.248,269.25,333.378,269.179,332.768,270.359z"/>
			<path d="M334.788,273.06c1.4,1.66-0.79,5.47-4.04,4.72C331.878,275.979,334.388,275.58,334.788,273.06z"/>
			<path d="M331.418,435.479c1.21,0.08,1.43-0.83,2.7-0.68c-0.02,0.659-0.82,0.529-1.35,0.68c0.02,0.65,0.83,0.52,1.35,0.67
				c-3.72,2.75-4.66-6.229-8.09-2.02c-0.37-1.49,1.29-0.96,1.35-2.021c-0.13-0.55-0.68-0.67-0.67-1.35c-0.77,0.13-0.38,0.68,0,0.67
				c0.11,1.47-2.39,0.31-3.37,0.68c0.52-3.45-4.38-1.46-4.72-4.05c3.34-2.18,4.94,3.13,9.43,2.03c-0.66-0.92-2.27-0.881-2.69-2.03
				c1.1-1.49,3.47,1.43,4.72,2.03l-1.01,0.779l0.33,1.24C329.398,433.909,331.528,433.569,331.418,435.479z"/>
			<path d="M338.158,78.29c-1.45,1.47-3.23,2.6-6.06,2.7C334.158,80.129,335.208,78.259,338.158,78.29z"/>
			<path d="M324.678,89.069c0.77,0.82,1.93,1.23,1.35,3.37c-0.96-1.38-2.08-2.83-3.37-0.67l-0.67-0.34l-0.67-0.33
				c-2.53,1.32-6.87,5.6-3.37,8.76c-3.61,0.96-3.65-6.46-1.35-8.76v-0.68h-0.68c0.99-1.59,1.43-1.25,0.68-3.37
				c4.96-1.1,9.35-2.78,12.8-5.39c6.42,5.17,10.49-2.18,16.85-0.67c-0.94,1.03-3.49,1.91-4.72,0.67c-1.16,3.68-7.95,4.47-14.15,4.04
				c0.36-0.54,0.7-1.09,0.67-2.02c-1.15,0.87-2.65,1.4-2.69,3.37c1.09-1.97,1.66-0.74,4.04-0.67c0.12,1.91-2.28,1.31-1.35,4.04
				c-1.27-0.07-0.46-2.23-2.02-2.02C325.488,88.529,325.358,89.08,324.678,89.069z"/>
			<path d="M332.098,78.29c2.08,0.68-1.46,1.11-1.35,2.02C328.198,79.16,332.208,79.199,332.098,78.29z"/>
			<path d="M328.728,390.999C331.908,392.05,329.628,394.34,328.728,390.999L328.728,390.999z"/>
			<path d="M328.048,97.839c-0.27,1.67-2.61,0.04-2.02-1.35C327.528,96.12,326.988,97.77,328.048,97.839z"/>
			<path d="M328.728,80.31c-0.76,1.04-1.94,1.66-2.7,2.7C324.258,82.049,327.448,80.449,328.728,80.31z"/>
			<path d="M321.318,524.439c0.01-1.03,4.99-1.48,4.04,0.67C323.768,525.13,323.368,523.949,321.318,524.439z"/>
			<path d="M325.358,182.08c-1.02,2.1-2.13-2.76-0.68-3.37C326.918,178.929,322.908,181.649,325.358,182.08z"/>
			<path d="M322.658,425.369c0.69,0.44,0.7,1.551,2.02,1.351C324.408,428.39,322.068,426.76,322.658,425.369z"/>
			<path d="M324.008,110.64c0.12,0.57-0.26,0.64-0.67,0.67c-1.53,0.38,0.81,1.06-0.68,2.03c-0.9,0-1.79,0-2.69,0
				c0.11-0.79,1.23-0.57,2.02-0.68C321.868,111.189,322.538,110.52,324.008,110.64z"/>
			<path d="M322.658,313.499c2.22,0.931,1.32,4.521-2.02,4.71C321.938,317.26,321.858,314.939,322.658,313.499z"/>
			<path d="M320.638,123.439c1.62-0.26-0.37,3.07,2.02,2.03C321.928,127.29,318.938,124.299,320.638,123.439z"/>
			<path d="M317.268,514.999c0.29-1.5,3.32-0.27,4.72-0.67C321.698,515.84,318.668,514.6,317.268,514.999z"/>
			<path d="M321.318,108.62c0.49,1.84-1.34,1.36-1.35,2.69C318.538,111.1,319.818,108.12,321.318,108.62z"/>
			<path d="M321.318,342.47c-0.94,1.33-3.26-1.641-3.37-3.36C319.888,339.409,319.538,341.999,321.318,342.47z"/>
			<path d="M320.638,291.259c0.15,2.61-0.71,4.22-2.69,4.71c-0.32-2.11,1.81-1.78,2.02-3.37c-1.23-1.91-3.94-2.35-5.39-4.04
				C316.518,286.879,317.928,291.469,320.638,291.259z"/>
			<path d="M319.968,309.449c3,0.4,0.79,5.8,0,6.74C318.338,314.949,320.888,312.22,319.968,309.449z"/>
			<path d="M321.318,430.76C319.338,433.319,318.658,428.329,321.318,430.76L321.318,430.76z"/>
			<path d="M319.288,465.13l-0.33,0.67l0.33,0.68c-1.15,1.76-3.49-0.95-6.06,0c0-0.68,0-1.35,0-2.021l0.34-0.68l-0.34-0.67
				C316.868,462.159,316.798,464.93,319.288,465.13z"/>
			<path d="M315.918,422.67c-0.33-0.881,3.35-0.29,2.7,1.35C316.778,424.51,317.258,422.68,315.918,422.67z"/>
			<path d="M313.228,424.689c2.25,0,2.3,2.2,4.72,2.03C317.438,427.609,312.698,427.06,313.228,424.689z"/>
			<path d="M315.248,293.949c1.12-2.96,0.23,4.98,1.35,2.02c1.65,0.64-0.87,2.65-2.02,2.7
				C315.598,296.729,314.548,296.56,315.248,293.949z"/>
			<path d="M313.228,428.06C311.748,430.119,308.908,427.289,313.228,428.06L313.228,428.06z"/>
			<path d="M300.418,376.17c2.16-0.091,5.16,0.67,4.72-2.021C302.568,373.829,300.928,374.439,300.418,376.17z M305.808,372.8
				c-1.08-14.75-7.24-24.44-6.73-36.391c-0.13-0.55-0.68-0.67-0.68-1.35c-0.16-1.74-1.16,0.93-2.69,0c2.17-2.87,0.21-5.7,2.69-8.09
				c-1.88-5.08-2.37-11.46-9.43-12.8c0.27-2.75-1.49-3.461-2.03-5.391c4.57-1.76,2.69,4.54,6.07,6.061
				c1.8-2.25-3.15-6.431-2.02-8.08c-1.91-0.561-1.75,0.949-3.37,0.67c0.86-7.42-9.02-14.45-9.44-22.24
				c2.9,3.56,6.01,9.17,10.79,8.76c-1.11,2.2-3.66-1.23-4.72,0.68c1.69,1.23,3.77,2.07,4.04,4.71c1.79,0.01,3.85-0.25,4.72,0.68
				c-0.19,1.38-2.51,0.63-2.7,2.02c2.61,5.17,5.32,10.061,8.09,12.131c-0.07,2.159-1.18,4.489,2.02,6.739
				c-1.15,2.37-1.35-1.689-2.69-1.35c1.39,4.229,2.9,8.33,4.04,12.81c1.93-2.42-0.24-6.479-1.35-8.09
				c7.52,4.94,2.57,24.66,10.79,28.98c1.49,0.37,0.96-1.29,2.02-1.351c1.97,0.05,2.5,1.54,3.37,2.7c0.79-0.11,0.57-1.229,0.67-2.03
				c1.87,3.04,6.26,1.69,9.44,0.681c-2.13-3.051-5.72-4.62-8.76-6.74c2.2-2.061,8.25,5.85,8.08-1.35
				c1.57-0.211,2.59,0.109,3.37,0.67c0.2-0.41,1.68-2.591,0-2.69c1.56-1.08,3.4,3.32,7.42,2.021c-0.45,0.899-1.44,1.26-2.7,1.35
				c0.21,0.91,1.69,0.56,2.7,0.67c1.2-1.26,1.05-3.89,3.37-4.04c-1.71-3.88,0.43-2.12-2.03-6.74c1.21-0.09,1.43,0.82,2.7,0.67
				c-0.42-2.05,0.86-5.8-0.67-6.739c2.56-0.21,3.52,1.359,3.37,3.369c2.88-1.71,3.06-6.43,2.02-8.76c-0.6,0.3-1.21,0.59-1.35,1.351
				c-1.99-0.591,1.56-1.011,0.67-2.7c4.53-0.09,3,8.14,5.39,8.09c-0.18,2.36-2.57,0.85-3.25-0.1c0.01-0.19-0.03-0.391-0.12-0.57
				c-0.14,0.09-0.07,0.31,0.12,0.57c-0.02,1.84-3.47,4.159-0.79,5.489c-3.29-1.02-0.79,3.32-4.04,3.37
				c0.42,1.83,2.81,1.681,2.69,4.05c-1.59-0.21-1.25-2.34-3.37-2.029c-1.24,0.649-1.13,5.58,0.68,5.399
				c-4.02,6.181-9.44,7.45-16.85,9.431c-0.9,0.47,0.33,1.8-0.68,3.37c-3.78-1.25-8.43,1.09-12.13,2.02
				c-0.08,1.21,0.83,1.42,0.68,2.7c-4.44-2.53-2.56,4.62-2.7,7.41c-0.79-0.11-0.57-1.23-0.67-2.021c-1.19,0.61-1.23,2.36-2.02,3.37
				c0.29,0.83,0.86,1.38,2.02,1.35c-1.09,1.23-2.14-0.479-3.37,1.351c0.73,1.96,3.21,2.18,6.06,2.02c0.47,2.24-1.39,1.08-2.02,0.67
				c5.39,6.37,18.52,7.23,24.26,9.44c0.1,2.82,3.09,2.75,6.07,2.69c-0.15,0.97-2.01,0.239-2.02,1.35l-0.56,0.56l-0.12,0.79
				c-3.94-1.68-7.89-3.34-11.45-5.39c1.61,3.74-3.71,0.31-7.42,0c-0.2-2.76,0.94,0.11,2.7-0.68c0.29-1.86-2.51-0.63-2.7-2.021
				c-0.79,0.11-0.57,1.23-0.67,2.021c-7.31-3.591-18.35-7.4-25.61-5.391c0.9-3.38-3.9-1.04-2.7-4.72c-1.85,0.62-3.7,1.24-4.04,3.37
				l-0.67-0.33l-0.68,0.33c-0.52-1.49-1.41-2.63-1.35-4.71C290.048,375.189,299.588,370.31,305.808,372.8z M298.398,375.499
				c-2.11-0.329-1.78,2.32-3.37,0.671c-0.65,2.479,3.31,2.68,3.37,0.68C297.588,376.699,297.988,376.1,298.398,375.499z
				 M318.618,357.3c0.59-1.391-1.75-3.03-2.02-1.351C317.658,356.01,317.128,357.67,318.618,357.3z M309.858,357.97
				c-1.08,1.88,2.91,1.87,2.69,0.68C311.638,358.439,311.268,357.689,309.858,357.97z M305.138,341.8
				c-0.13-2.341,0.24-5.181-2.02-5.391C303.328,338.67,303.808,340.659,305.138,341.8z M299.748,334.39
				C299.038,338.3,302.668,334.67,299.748,334.39L299.748,334.39z M332.768,347.869c-2.47,0.221-3.74-0.75-5.39-1.35
				c1.3,2.52,1.59,6.05,5.39,6.06C332.628,350.119,331.848,349.999,332.768,347.869z M340.858,339.109c1.96,0.55,4.2-4.08,1.35-4.05
				C342.528,337.18,341.248,337.699,340.858,339.109z"/>
			<path d="M311.208,424.02C309.568,426.229,307.988,422.149,311.208,424.02L311.208,424.02z"/>
			<path d="M309.178,463.779c0.7,2.271-2.09,1.05-3.37,1.351C306.388,464.13,307.508,463.68,309.178,463.779z"/>
			<path d="M305.808,421.999c1.77-0.189,2.9,0.25,2.7,2.021C307.218,423.739,305.608,423.779,305.808,421.999z"/>
			<path d="M307.838,306.76c0.83,0.29,1.38,0.859,1.34,2.02C308.358,308.479,307.798,307.92,307.838,306.76z"/>
			<path d="M305.138,517.02c-0.27-1.3,3.07-0.98,2.02,0.68c-0.45,0-0.9,0-1.35,0C305.938,517.13,305.548,517.06,305.138,517.02z"/>
			<path d="M303.118,463.779c1.58,1.13-0.25-0.06-1.35,0C299.258,463.59,303.748,462.109,303.118,463.779z"/>
			<path d="M303.118,312.149c2.46,1.65-2.77,1.21-2.7,2.69C298.028,313.26,302.808,313.249,303.118,312.149z"/>
			<path d="M301.098,221.169c2.29-0.06,1.99,2.49,2.02,4.71c-1.6,1.32-3.7,2.14-6.07,2.7
				C296.628,227.04,304.048,225.41,301.098,221.169z"/>
			<path d="M303.788,309.449c-0.25,2.16-7.54,3.601-7.41,0C298.268,311.01,301.578,309.659,303.788,309.449z"/>
			<path d="M299.078,300.689c-2.04,1.78-3.66-2.6-5.4-3.37C295.528,295.739,296.948,300.319,299.078,300.689z"/>
			<path d="M297.048,110.64c0.89-0.33,0.3,3.34-1.34,2.7C295.208,111.5,297.038,111.979,297.048,110.64z"/>
			<path d="M296.378,419.3c-0.65,1.04-3.92-0.971-5.39-1.341C292.798,415.749,294.748,419.09,296.378,419.3z"/>
			<path d="M295.028,114.009C293.978,117.189,291.688,114.91,295.028,114.009L295.028,114.009z"/>
			<path d="M293.678,116.709c0.6,2.16-2.22,0.92-2.02,2.69C290.558,119.319,292.298,116.529,293.678,116.709z"/>
			<path d="M290.308,138.949c0.84,2.75,5.09,2.1,6.07,4.71C293.258,143.189,290.968,141.879,290.308,138.949z"/>
			<path d="M288.288,126.81c0.12-1.95,3.21-1.62,2.7,0.68C290.388,126.969,289.468,126.759,288.288,126.81z"/>
			<path d="M290.308,120.08c0.6,1.3-2.15,5.01-4.04,6.06c0.43-1.63,3.35-4.24,2.02-5.39
				C288.368,118.359,290.518,122.179,290.308,120.08z"/>
			<path d="M286.938,128.16c0.68,0,1.35,0,2.03,0c-0.35,1-1,1.7-1.35,2.7C286.598,130.27,287.798,129.85,286.938,128.16z"/>
			<path d="M283.568,406.499c-6.58,1.21-12.4,1.641-16.17,4.04C271.018,408.619,280.718,412.649,283.568,406.499z M282.898,403.8
				c0.97-0.15,0.24-2.011,1.35-2.021l0.67,0.34l0.68-0.34c1.57,2.63-2.96,9.3,1.34,9.44c0.15-2.62,1.66-2.181,2.7,0.67
				c0.76-2.181,5.02-0.24,6.07,1.35l-0.34,0.67l0.34,0.681c-2.57-0.801-6.96,0.21-8.09-2.03c-1.82,0.84-1.64,2.649-2.02,3.37
				c-4.74-1.86-11.11-5.061-19.55-2.021c-0.4-2.149,1.27-2.08,0-3.37l0.34-1.01l0.34-1.01c1.68-1.76,3.38-2.021,3.37-4.04
				c1.81,0.29,6.87-0.89,4.71,1.34c2.28-2.5,4.43-2.82,6.74-4.04C282.518,401.93,281.788,403.789,282.898,403.8z"/>
			<path d="M283.568,165.229c2.75,0.23-0.02,1.77,1.35,3.37C283.448,168.5,283.478,166.899,283.568,165.229z"/>
			<path d="M276.158,281.819c1.77-0.2,0.53,2.61,2.7,2.02c-0.57,1-2.17,0.98-3.37,1.35
				C274.928,283.29,276.438,283.439,276.158,281.819z"/>
			<path d="M279.528,527.81c-0.53,1.479-3.17,0.87-3.37,2.689C273.608,528.55,278.258,528.159,279.528,527.81z"/>
			<path d="M273.468,531.18c0.2,1.55-1.95,0.75-2.03,2.02c-1-0.3,0.27-0.859,0-2.02C272.118,531.18,272.788,531.18,273.468,531.18z"
				/>
			<path d="M276.158,455.02c-11.36-1.7-15.71,3.61-20.89,8.09v-0.67h-0.67c3.12-9.99,9.46-15.61,8.76-24.94
				c-0.79,0.11-0.57,1.23-0.68,2.021c-1.89-0.68,0.19-2.86,0-4.04c-1.45,3.71-2.12-2.62-0.67-3.37c-2.37-2.56-0.45-6.96-1.35-14.83
				l0.68,0.34l0.67-0.34c1.04,0.98,1.41,2.63,1.35,4.72c1.78-0.8,2.09-0.579,1.34-2.699c2.49,0.54,0.56,2.779,0,4.05
				c3.45,3.21,2.57,16.41,4.72,26.28c-0.29,0.829-0.86,1.38-2.02,1.35c1.91,3.33,6.11-3.33,8.76,0.67
				c-0.61,0.5-2.71,0.021-4.72,0.68c0.1,1.931,4.63-0.59,4.72,1.341l-0.34,0.68L276.158,455.02z M267.398,448.279
				c-0.41-1.39,1.09-4.68-1.35-4.04C265.908,446.18,266.218,447.659,267.398,448.279z M266.728,437.499
				c-1.17-1.72,1.02-2.609-1.35-2.699C265.188,436.34,265.538,437.34,266.728,437.499z M264.698,450.3
				c-0.59,1.39,1.75,3.029,2.03,1.35C265.658,451.59,266.198,449.93,264.698,450.3z M264.698,446.93c0-0.44,0-0.891,0-1.34
				c-0.45,0-0.89,0-1.34,0c0,0.449,0,0.899,0,1.34C263.808,446.93,264.248,446.93,264.698,446.93z M263.358,424.02
				c-0.11,0.9,1.06,3.72,1.34,2.02C264.378,425.249,263.988,424.51,263.358,424.02z M264.028,452.329
				c-0.96-0.159-1.14-1.109-2.02-1.35c0.01,1.59-1.16,1.979-0.67,4.04C263.048,454.939,263.948,454.039,264.028,452.329z"/>
			<path d="M271.438,277.779c-1.26,1.21-3.25-2.55-4.04-4.05C269.028,274.799,269.878,276.649,271.438,277.779z"/>
			<path d="M269.418,188.14c3.05-2.3-0.3,3.95,0.68,3.37c-0.3,1-0.87-0.26-2.03,0C267.398,189.64,271.898,189.609,269.418,188.14z"
				/>
			<path d="M268.068,207.689c1.06,0.02,2.52,1.39,2.03,4.71c-2.66,0.72-3.64,3.11-5.4,4.72c-2.44-0.43,1.57-3.15-0.67-3.37
				c1.52-0.95,3.95-0.99,4.04-3.37c-0.05-1.27-2.88,0.17-2.02,2.02c-2.18,0.84-0.51-2.18-2.69-1.34c1.39-3.01,5.78-4.91,5.39-11.46
				c-2.65,0.5-3.21,3.08-3.37,6.07c-1.45,1.25-3.05-0.55-3.33,0.69c0.45-3.06,4.83-7.19,4-11.48c0.21-2.24,3.2,2.03,2.7-1.35
				c1.46,0.96-1.02,6.19,1.35,10.11C269.758,205.319,268.818,206.41,268.068,207.689z"/>
			<path d="M267.398,534.55c1.06-0.521,1.01-2.141,2.7-2.03C269.088,533.38,268.888,536.1,267.398,534.55z"/>
			<path d="M267.398,235.989c-0.35,2.67-1-2.66-1.35,0c-2.06-0.63-1.65-3.73-3.37-4.72
				C264.798,229.649,265.488,235.179,267.398,235.989z"/>
			<path d="M266.048,243.41c-1.44,3.12-4.02-3.77-4.04,0c-1.37-0.95,0.66-2.33-0.67-4.05
				C262.028,238.929,263.818,243.14,266.048,243.41z"/>
			<path d="M264.698,188.14c1.42,1.03,0.64,5.54-1.34,5.39C263.458,191.39,264.878,190.569,264.698,188.14z"/>
			<path d="M262.008,223.189c0.67,0,1.35,0,2.02,0c-0.24,0.88-1.19,1.06-1.35,2.02C261.888,225.1,262.108,223.979,262.008,223.189z"
				/>
			<path d="M263.358,258.91c-0.12,1.14-3.21-0.32-2.7-2.03c-1.98,0.58,0.88,1.7,0,3.37c-2.25-1-2-3.02-0.67-4.71
				c0.6,0.52,1.52,0.72,2.69,0.67C261.808,257.109,261.788,258.719,263.358,258.91z"/>
			<path d="M262.678,245.429C265.168,247.469,260.638,247.699,262.678,245.429L262.678,245.429z"/>
			<path d="M259.988,261.6c0.61-0.35,1.54,4.72,2.69,6.07C261.038,266.39,259.608,264.899,259.988,261.6z"/>
			<path d="M255.938,566.899c0.49,1.63-1.92,6.14-4.04,7.41C252.878,571.47,254.658,569.43,255.938,566.899z"/>
			<path d="M246.508,556.109C245.118,553.92,249.838,552.859,246.508,556.109L246.508,556.109z"/>
			<path d="M245.158,477.939c-1.68,3.03-2.85,6.58-6.07,8.08C240.778,482.989,242.618,480.109,245.158,477.939z"/>
			<path d="M233.698,496.81c1.13-0.36-0.71,3.34-1.34,4.71C230.658,500.43,233.548,498.279,233.698,496.81z"/>
			<path d="M227.638,506.239c0.67,0,1.35,0,2.02,0c0,2.25-2.19,2.3-2.02,4.72C225.638,509.979,228.528,508.329,227.638,506.239z"/>
			<path d="M223.588,515.68c1.74,0.16-0.92,1.16,0,2.689C221.918,518.27,223.398,516.09,223.588,515.68z"/>
			<path d="M220.218,519.72C221.968,517.399,221.848,523.189,220.218,519.72L220.218,519.72z"/>
			<path d="M220.218,521.069c1.19,4.71-4.21,4.601-2.69,12.13c-1.61,0.49-4.66,5.7-2.02,6.061c-0.01,1.34-1.84,0.859-1.35,2.699
				c-1.06,1.32,0.11-4.829-1.35,0c-0.54-0.359-1.09-0.699-2.02-0.67c1.92-0.359,3.63-4.42,2.02-6.069c4.52-0.681,3-9.311,3.37-13.48
				c1.59-1.14-0.43,3.08,0.68,4.05c4.28-0.08-0.54-4.699,2.02-4.05c0.12-0.569-0.27-0.63-0.68-0.67
				C218.498,520.069,219.068,521.329,220.218,521.069z"/>
			<path d="M219.548,479.279c-1.11,0.851-1.39-4.87-3.37-5.39C218.138,472.199,219.088,477.239,219.548,479.279z"/>
			<path d="M215.508,579.029c2.65,2.13-0.42,3.69-1.35,6.061C211.738,582.84,216.808,582.39,215.508,579.029z"/>
			<path d="M211.458,587.789c1.8,1.41-1.68,3.221-1.34,5.391C208.598,592.06,211.348,589.52,211.458,587.789z"/>
			<path d="M210.118,567.569c-0.13,0.76-0.68,0.37-0.68,0c-0.57-0.12-0.63,0.26-0.67,0.67
				C206.688,567.39,209.518,566.22,210.118,567.569z"/>
			<path d="M198.568,615.68c0.07,0.149,0.94,3.51,0.09,4.46c-1.5-0.29-0.53-3.58,0-4.05
				C198.598,615.869,198.568,615.729,198.568,615.68z"/>
			<path d="M198.708,622.59c-0.01,0.04-0.02,0.1-0.03,0.17C198.688,622.689,198.708,622.63,198.708,622.59z"/>
			<path d="M198.468,623.67c-0.03,0.119-0.06,0.25-0.09,0.369C198.398,623.93,198.428,623.8,198.468,623.67z"/>
			<path d="M198.368,624.1c-0.03,0.12-0.05,0.229-0.08,0.34C198.308,624.34,198.338,624.229,198.368,624.1z"/>
			<path d="M198.228,624.699c0.01-0.06,0.03-0.13,0.05-0.21C198.258,624.56,198.248,624.64,198.228,624.699z"/>
			<path d="M198.228,624.699c-0.02,0.11-0.04,0.2-0.06,0.26C198.178,624.899,198.198,624.81,198.228,624.699z"/>
			<path d="M198.168,624.97c-0.01,0.029-0.02,0.06-0.02,0.08C198.148,625.029,198.158,625.01,198.168,624.97z"/>
		</g>
		<g>
			<path fill="none" stroke="#000000" stroke-width="1.2975" stroke-linecap="round" d="M532.258,644.06
				c-5.08-8.101-2.42-17.94-5.729-26.28"/>
			<path fill="none" stroke="#000000" stroke-width="0.8233" stroke-linecap="round" d="M198.318,612.39
				c-0.16-4.34,0.05-8.601,0.68-12.811"/>
			<path fill="none" stroke="#000000" stroke-width="0.929" stroke-linecap="round" d="M517.088,563.189
				c1.47,6.66,1.53,13.02,4.05,18.87"/>
			<path fill="none" stroke="#000000" stroke-width="1.1187" stroke-linecap="round" d="M200.678,587.789
				c0.35-9.159,1.82-18.06,4.38-26.619"/>
			<path fill="none" stroke="#000000" stroke-width="0.849" stroke-linecap="round" d="M252.908,547.01
				c2.21-1.851,3.86-4.021,5.73-6.4"/>
			<path fill="none" stroke="#000000" stroke-width="1.1656" stroke-linecap="round" d="M524.508,555.779
				c0.86-10.63-2.97-20.83-3.04-31.68"/>
			<path fill="none" stroke="#000000" stroke-width="1.0107" stroke-linecap="round" d="M450.368,461.42
				c4.77,4.55,11.17,7.51,15.5,12.13"/>
			<path fill="none" stroke="#000000" stroke-width="1.1427" stroke-linecap="round" d="M329.068,430.869
				c3.87,1.771,7.29,4.141,11.12,5.96"/>
			<path fill="none" stroke="#000000" stroke-width="1.2468" stroke-linecap="round" d="M403.868,426.38
				c8.38,7.88,19.16,8.84,28.64,14.489"/>
			<path fill="none" stroke="#000000" stroke-width="0.9728" stroke-linecap="round" d="M370.508,407.85
				c5.35,1.56,10.27,5.18,15.17,7.75"/>
			<path fill="none" stroke="#000000" stroke-width="1.9887" stroke-linecap="round" d="M495.188,483.659
				c0.801-5.939,5.171-11.27,4.19-17.42"/>
			<path fill="none" stroke="#000000" stroke-width="1.4082" stroke-linecap="round" d="M495.188,525.789
				c-1.5-4.93-2.85-10.25-4.72-15.17"/>
			<path fill="none" stroke="#000000" stroke-width="0.8045" stroke-linecap="round" d="M480.028,494.449
				c0.489,0.33,0.819,0.57,1.14,0.811c0.12,2.71,0.47,5.3,0.88,7.949"/>
			<path fill="none" stroke="#000000" stroke-width="1.7366" stroke-linecap="round" d="M480.028,494.449
				c-1.931,3.05-5.771,4.7-7.08,8.08"/>
			<path fill="none" stroke="#000000" stroke-width="1.7696" stroke-linecap="round" d="M480.028,494.449
				c1.279-2.41,2.54-4.8,3.369-7.42"/>
			<path fill="none" stroke="#000000" stroke-width="0.9297" stroke-linecap="round" d="M466.888,398.749
				c4.62,1.12,8.521,4.021,12.46,6.74"/>
			<path fill="none" stroke="#000000" stroke-width="0.9708" stroke-linecap="round" d="M436.897,443.229
				c3.57,2.17,6.721,4.25,9.771,7.07"/>
			<path fill="none" stroke="#000000" stroke-width="1.2577" stroke-linecap="round" d="M441.608,386.619
				c0.229,0,0.449-0.01,0.68-0.01c3.27,3.7,6.97,10.98,12.8,9.44"/>
			<path fill="none" stroke="#000000" stroke-width="0.8829" stroke-linecap="round" d="M310.868,290.919
				c-4.32,0.44-5.09-5.67-3.03-8.43"/>
			<path fill="none" stroke="#000000" stroke-width="0.9423" stroke-linecap="round" d="M273.798,276.77
				c-2.86-4.04-5.26-9.61-6.29-13.93"/>
			<path fill="none" stroke="#000000" stroke-width="0.8907" stroke-linecap="round" d="M308.848,220.83
				c0.04-0.11,0.09-0.22,0.13-0.34c-0.1-0.62-0.07-1.53-0.34-2.15c-2.29-2.69-6.14-2.91-7.54-6.27"/>
			<path fill="none" stroke="#000000" stroke-width="1.0161" stroke-linecap="round" d="M298.738,215.439
				c-1.28-0.03-2.5-0.62-3.67-1.04c-0.46-0.76-1.05-1.97-1.2-2.64c0.45-1.46,0.56-2.99,1.16-4.41"/>
			<path fill="none" stroke="#000000" stroke-width="0.9056" stroke-linecap="round" d="M368.828,182.41
				c2.36-0.26,3.98-1.29,6.54-1.55c0.19-1.07-1.06-2.16,0.35-3.01c0.17-0.05,0.35-0.1,0.52-0.15"/>
			<path fill="none" stroke="#000000" stroke-width="1.3791" stroke-linecap="round" d="M276.838,144.339
				c3.12-5.23,5.42-10.6,8.42-15.84"/>
			<path fill="none" stroke="#000000" stroke-width="0.9304" stroke-linecap="round" d="M274.138,150.229
				c0.2-2.24,1.11-4.26,2.7-5.89"/>
			<path fill="none" stroke="#000000" stroke-width="1.0382" stroke-linecap="round" d="M274.138,150.229
				c0.66,0.16,1.43,0.21,1.93,0.12c0.81-1.24,2.03-2.1,3.31-2.79c0.29-1.03-0.93-1.72-1.06-2.69c-0.56-0.11-1.04-0.31-1.48-0.53"/>
			<path fill="none" stroke="#000000" stroke-width="1.6677" stroke-linecap="round" d="M266.728,180.39
				c0.61-8.34,7.06-17.02,7.96-24.59c-2.41-1-2.18-4.1-0.55-5.57"/>
			<path fill="none" stroke="#000000" stroke-width="0.9385" stroke-linecap="round" d="M405.558,132.209
				c0.74-2.76,1.28-5.89,2.471-8.33c2.72,1.47,3.369-1.22,4.6-2.79"/>
			<path fill="none" stroke="#000000" stroke-width="0.911" stroke-linecap="round" d="M391.068,129.85
				c0.15-0.07,0.31-0.14,0.47-0.2c-0.1-6.35,5.95-11.6,11.66-12.61"/>
			<path fill="none" stroke="#000000" stroke-width="1.0885" stroke-linecap="round" d="M410.608,107.609
				c-1.591,1.45-3.66,1.6-5.551,2.51c0.13,3.28,6.96,2.25,6.561-1.16"/>
			<path fill="none" stroke="#000000" stroke-width="1.2751" stroke-linecap="round" d="M407.578,90.199
				c-0.84-0.65-0.94-1.94-1.811-2.53c-1,0.28-2.069,0.26-3.04,0.59c-1.13,1.11-1.74,2.95-0.699,4.35c1.46,0.76,3.54,0.74,5,0.19
				C407.218,91.919,407.468,91.209,407.578,90.199z"/>
			<path fill="none" stroke="#000000" stroke-width="1.554" stroke-linecap="round" d="M407.578,90.199
				c3.62-1.37,7.52,0.33,11.12,1.23"/>
			<path fill="none" stroke="#000000" stroke-width="1.3149" stroke-linecap="round" d="M322.998,101.54
				c-3.76-2.13-2.11-6.88-1.01-10.11"/>
			<path fill="none" stroke="#000000" stroke-width="0.9826" stroke-linecap="round" d="M305.248,101.989
				c0.69-0.06,1.79-0.03,2.3-0.75c-0.32-0.92,0.66-2.12-0.58-2.57c-0.11-0.4-0.02-0.69,0.08-0.98c3.68-2.16,6.2-5.11,9.55-7.27"/>
			<path fill="none" stroke="#000000" stroke-width="1.8623" stroke-linecap="round" d="M536.298,218.469
				c3.35,1.86,6.17,5.01,8.87,7.97"/>
			<path fill="none" stroke="#000000" stroke-width="1.2807" stroke-linecap="round" d="M543.598,392.909
				c-0.47,1.011-0.899,2.04-1.229,3.101c-2.5,2.25-5.87,2.319-8.431,3.41"/>
			<path fill="none" stroke="#000000" stroke-width="1.0441" stroke-linecap="round" d="M517.428,325.63c0,0.109,0,0.229,0,0.35
				c-0.09,0.31-0.359,0.52-0.64,0.72c-0.65-0.04-1.58-0.01-2.19-0.27c1.11-3.351-0.529-7.29,0.811-10.58"/>
			<path fill="none" stroke="#000000" stroke-width="2.0288" stroke-linecap="round" d="M520.798,167.589
				c-0.01-0.18-0.02-0.36-0.03-0.54c-3.29-0.6-3.42-8.45-4.409-14.26c-3.671-21.57-13.421-43.65-34.511-56.3
				c0.05-1.11-0.779-1.94-0.81-3.03"/>
			<path fill="none" stroke="#000000" stroke-width="1.1039" stroke-linecap="round" d="M481.378,201.279
				c-3.22,2.04-7.37,4.04-8.09,8.09"/>
			<path fill="none" stroke="#000000" stroke-width="1.2447" stroke-linecap="round" d="M449.698,225.209
				c4.35-1.17,8.83-1.75,12.81-3.71"/>
			<path fill="none" stroke="#000000" stroke-width="1.2357" stroke-linecap="round" d="M433.188,63.459
				c2.86-3.3,7.53-3.99,11.69-4.72c1.08,0.48,1.72,1.48,1.77,2.29c-2.76,5.01-7.81,10.72-2.859,16.15c0.71,0.39,1.72,0.38,2.88,0.44
				"/>
			<path fill="none" stroke="#000000" stroke-width="0.9902" stroke-linecap="round" d="M418.028,60.429
				c4.029-0.72,9.83,0.84,11.449,4.72"/>
			<path fill="none" stroke="#000000" stroke-width="1.5357" stroke-linecap="round" d="M415.668,268.339
				c1.01,3.6,1.2,7.37,2.02,11.12"/>
			<path fill="none" stroke="#000000" stroke-width="0.7907" stroke-linecap="round" d="M419.368,71.89
				c-0.11,0.08-0.23,0.16-0.351,0.24c-0.109,0.08-0.22,0.16-0.33,0.23c-1.46-1.12-3.949-1.86-4.369-4.01"/>
			<path fill="none" stroke="#000000" stroke-width="0.7935" stroke-linecap="round" d="M412.298,271.04
				c0.45,3.59,1.29,7.09,2.36,10.44"/>
			<path fill="none" stroke="#000000" stroke-width="2.1996" stroke-linecap="round" d="M417.538,243.169c1.29-2.95,1-6.37,1.5-9.54
				"/>
			<path fill="none" stroke="#000000" stroke-width="0.9708" stroke-linecap="round" d="M416.338,246.779
				c-1.35,1.51-1.79,3.7-1.68,5.72"/>
			<path fill="none" stroke="#000000" stroke-width="1.2647" stroke-linecap="round" d="M416.338,246.779
				c1.64,2.5,1.36,5.77,0.34,8.42"/>
			<path fill="none" stroke="#000000" stroke-width="1.4384" stroke-linecap="round" d="M413.078,241.27
				c-0.351-1.17-0.021-2.39-0.11-3.59"/>
			<path fill="none" stroke="#000000" stroke-width="1.2181" stroke-linecap="round" d="M413.078,241.27c1.76-0.16,3.069,1,4.46,1.9
				"/>
			<path fill="none" stroke="#000000" stroke-width="2.3732" stroke-linecap="round" d="M416.528,245.669
				c0.569-0.38,0.75-1.55,1.01-2.5"/>
			<path fill="none" stroke="#000000" stroke-width="2.7375" stroke-linecap="round" d="M416.528,245.669
				c-0.101,0.46-0.15,0.79-0.19,1.11"/>
			<path fill="none" stroke="#000000" stroke-width="1.4653" stroke-linecap="round" d="M412.458,246.1
				c-0.45-1.65-0.57-3.43,0.62-4.83"/>
			<path fill="none" stroke="#000000" stroke-width="1.4409" stroke-linecap="round" d="M412.458,246.1
				c-0.24,0.99-0.26,2.02-0.16,3.03"/>
			<path fill="none" stroke="#000000" stroke-width="1.5236" stroke-linecap="round" d="M412.458,246.1
				c1.46,0.32,2.7-1.46,4.07-0.43"/>
			<path fill="none" stroke="#000000" stroke-width="0.7898" stroke-linecap="round" d="M403.868,371.789
				c-3.72-4.81-5.07-10.6-7.07-16.51"/>
			<path fill="none" stroke="#000000" stroke-width="0.9706" stroke-linecap="round" d="M402.518,67.169
				c2.67-1.35,5.75-2.91,8.771-2.69"/>
			<path fill="none" stroke="#000000" stroke-width="0.7782" stroke-linecap="round" d="M402.518,67.169c0,0.45,0,0.9,0,1.35"/>
			<path fill="none" stroke="#000000" stroke-width="0.8264" stroke-linecap="round" d="M394.438,71.209
				c0.11-0.09,0.22-0.19,0.33-0.27c2.12-1.78,4.9-3.3,7.75-3.77"/>
			<path fill="none" stroke="#000000" stroke-width="1.0974" stroke-linecap="round" d="M393.428,331.689
				c0.85-2.69,1.37-6.02,2.32-9.12c-0.2-0.43-0.65-0.649-0.98-0.99"/>
			<path fill="none" stroke="#000000" stroke-width="1.5484" stroke-linecap="round" d="M365.908,302.6
				c4.51,3.03,8.07,8.76,14.37,8.2"/>
			<path fill="none" stroke="#000000" stroke-width="1.6685" stroke-linecap="round" d="M346.918,260.589
				c0.71-4.3,2.58-8.18,4.05-12.13"/>
			<path fill="none" stroke="#000000" stroke-width="1.0227" stroke-linecap="round" d="M463.178,533.199
				c-1.859-3.99-4.66-7.41-6.74-11.12"/>
			<path fill="none" stroke="#000000" stroke-width="1.5295" stroke-linecap="round" d="M490.358,573.069
				c9.189,12.68,16.34,26.94,21.76,41c0.09,0.23,0.17,0.45,0.26,0.68"/>
			<path fill="none" stroke="#000000" stroke-width="1.6594" stroke-linecap="round" d="M465.418,542.069
				c1.65,1.91,2.96,4.271,5.17,5.62"/>
			<path fill="none" stroke="#000000" stroke-width="1.5158" stroke-linecap="round" d="M409.598,479.619
				c16.311,17.4,33.511,33.9,47.96,52.79"/>
			<path fill="none" stroke="#000000" stroke-width="1.6775" stroke-linecap="round" d="M369.278,446.819
				c12.45,9.28,24.52,19.351,36.61,29.09"/>
			<path fill="none" stroke="#000000" stroke-width="1.8077" stroke-linecap="round" d="M354.668,400.1
				c-5.76-1.54-10.72-4.8-16.39-6.521"/>
			<path fill="none" stroke="#000000" stroke-width="1.3686" stroke-linecap="round" d="M318.958,465.8
				c5.14,1.279,9.62,3.989,14.82,5.399"/>
			<path fill="none" stroke="#000000" stroke-width="1.8235" stroke-linecap="round" d="M295.368,413.909
				c19.92,4.5,39.85,12.141,57.73,21.46"/>
			<path fill="none" stroke="#000000" stroke-width="1.2408" stroke-linecap="round" d="M284.918,402.119
				c0.35-7.1,0.91-13.859,0.68-20.89"/>
			<path fill="none" stroke="#000000" stroke-width="1.4648" stroke-linecap="round" d="M275.818,454.35
				c13.45-1.41,26.01,5.09,37.75,9.43"/>
			<path fill="none" stroke="#000000" stroke-width="1.4307" stroke-linecap="round" d="M261.338,417.619
				c0-0.569-0.29-1.069-0.55-1.609c-0.09-0.721,0.1-1.511,0.12-2.061c1.61-1.66,3.17-3.96,5.48-4.42"/>
			<path fill="none" stroke="#000000" stroke-width="1.1029" stroke-linecap="round" d="M247.518,473.55
				c3.15-3.351,4.21-7.94,7.75-11.11"/>
			<path fill="none" stroke="#000000" stroke-width="1.2032" stroke-linecap="round" d="M515.408,604.47
				c-2.55-4.96-5.3-10.91-5.73-16.351"/>
			<path fill="none" stroke="#000000" stroke-width="0.9478" stroke-linecap="round" d="M210.448,544.319
				c0.3,1.59-0.02,2.91-1.81,2.9c-0.11,3.489-1.49,6.51-2.23,9.899"/>
			<path fill="none" stroke="#000000" stroke-width="0.9376" stroke-linecap="round" d="M478.678,532.189
				c-0.26-3.8,0.23-7.66,0.67-11.46"/>
			<path fill="none" stroke="#000000" stroke-width="1.1736" stroke-linecap="round" d="M407.918,119.06
				c3.83-1.2,6.58-4.15,9.77-6.4"/>
			<path fill="none" stroke="#000000" stroke-width="1.5715" stroke-linecap="round" d="M363.438,84.359
				c3.55,0.99,7.27,0.14,10.78-0.68"/>
		</g>
	</g>
</g>
<g id="Layer_3">
	<path fill="#EFF7FC" stroke="#101084" stroke-width="10" stroke-miterlimit="10" d="M-23-10v640h834V-10H-23z M414.516,560.406
		c-149.945,0-271.5-121.555-271.5-271.5s121.555-271.5,271.5-271.5s271.5,121.555,271.5,271.5S564.461,560.406,414.516,560.406z"/>
</g>
</svg>
